<svg width="500" height="373" viewBox="0 0 500 373" fill="none" xmlns="http://www.w3.org/2000/svg">
<path d="M500 327.4H0V327.65H500V327.4Z" fill="#EBEBEB"/>
<path d="M449.9 343.49H416.78V343.74H449.9V343.49Z" fill="#EBEBEB"/>
<path d="M404.19 343.49H333.38V343.74H404.19V343.49Z" fill="#EBEBEB"/>
<path d="M294.33 334.21H275.14V334.46H294.33V334.21Z" fill="#EBEBEB"/>
<path d="M86.75 335.89H52.46V336.14H86.75V335.89Z" fill="#EBEBEB"/>
<path d="M158 335.89H95.65V336.14H158V335.89Z" fill="#EBEBEB"/>
<path d="M225.14 340.11H188.33V340.36H225.14V340.11Z" fill="#EBEBEB"/>
<path d="M237 282.8H43.91C42.3973 282.797 40.9475 282.195 39.8789 281.124C38.8102 280.054 38.21 278.603 38.21 277.09V5.66C38.2232 4.15603 38.8292 2.71798 39.8964 1.65822C40.9637 0.598458 42.406 0.00257639 43.91 0H237C238.514 0 239.967 0.601588 241.038 1.67242C242.108 2.74325 242.71 4.19561 242.71 5.71V277.09C242.71 278.604 242.108 280.057 241.038 281.128C239.967 282.198 238.514 282.8 237 282.8V282.8ZM43.91 0.200001C42.4636 0.20265 41.0774 0.779065 40.0557 1.80273C39.0339 2.82639 38.46 4.21365 38.46 5.66V277.09C38.46 278.536 39.0339 279.924 40.0557 280.947C41.0774 281.971 42.4636 282.547 43.91 282.55H237C238.447 282.547 239.835 281.971 240.858 280.948C241.881 279.924 242.457 278.537 242.46 277.09V5.66C242.457 4.21273 241.881 2.82549 240.858 1.80212C239.835 0.77874 238.447 0.202644 237 0.200001H43.91Z" fill="#EBEBEB"/>
<path d="M453.31 282.8H260.21C258.696 282.797 257.246 282.195 256.175 281.125C255.105 280.054 254.503 278.604 254.5 277.09V5.66C254.516 4.15511 255.124 2.71708 256.193 1.65759C257.262 0.598109 258.705 0.00254829 260.21 0H453.31C454.812 0.0052045 456.252 0.602249 457.317 1.66173C458.382 2.72121 458.987 4.15775 459 5.66V277.09C459 278.601 458.401 280.05 457.335 281.121C456.268 282.191 454.821 282.795 453.31 282.8V282.8ZM260.21 0.200001C258.763 0.202644 257.375 0.77874 256.352 1.80212C255.329 2.82549 254.753 4.21273 254.75 5.66V277.09C254.753 278.537 255.329 279.924 256.352 280.948C257.375 281.971 258.763 282.547 260.21 282.55H453.31C454.757 282.547 456.145 281.971 457.168 280.948C458.191 279.924 458.767 278.537 458.77 277.09V5.66C458.767 4.21273 458.191 2.82549 457.168 1.80212C456.145 0.77874 454.757 0.202644 453.31 0.200001H260.21Z" fill="#EBEBEB"/>
<path d="M158.74 34.87H62.05V301.57H158.74V34.87Z" fill="#F5F5F5"/>
<path d="M158.74 301.58H159.72L159.72 34.88H158.74L158.74 301.58Z" fill="#EBEBEB"/>
<path d="M149.41 45.05H71.38V291.4H149.41V45.05Z" fill="white"/>
<path d="M200.19 192.74L428.28 192.74V23.27L200.19 23.27L200.19 192.74Z" fill="#E6E6E6"/>
<path d="M196.66 192.74L424.75 192.74V23.27L196.66 23.27L196.66 192.74Z" fill="#F5F5F5"/>
<path d="M418.41 185.63V30.39L202.99 30.39V185.63H418.41Z" fill="white"/>
<path d="M205.65 185.62V30.38H202.98V185.62H205.65Z" fill="#E6E6E6"/>
<path d="M199.27 152.46L422.12 152.46V142.9L199.27 142.9V152.46Z" fill="#F5F5F5"/>
<g opacity="0.4">
<path opacity="0.4" d="M211.11 15.78H189.58V70.25H211.11V15.78Z" fill="#E6E6E6"/>
<path opacity="0.4" d="M211.11 65.87H221.79V15.78H211.11V65.87Z" fill="#F5F5F5"/>
<path opacity="0.4" d="M243.32 15.78H221.79V70.25H243.32V15.78Z" fill="#E6E6E6"/>
<path opacity="0.4" d="M243.32 65.87H254V15.78H243.32V65.87Z" fill="#F5F5F5"/>
<path opacity="0.4" d="M275.53 15.78H254V70.25H275.53V15.78Z" fill="#E6E6E6"/>
<path opacity="0.4" d="M275.53 65.87H286.21V15.78H275.53V65.87Z" fill="#F5F5F5"/>
<path opacity="0.4" d="M307.74 15.78H286.21V70.25H307.74V15.78Z" fill="#E6E6E6"/>
<path opacity="0.4" d="M307.74 65.87H318.42V15.78H307.74V65.87Z" fill="#F5F5F5"/>
<path opacity="0.4" d="M339.95 15.78H318.42V70.25H339.95V15.78Z" fill="#E6E6E6"/>
<path opacity="0.4" d="M339.95 65.87H350.63V15.78H339.95V65.87Z" fill="#F5F5F5"/>
<path opacity="0.4" d="M372.16 15.78H350.63V70.25H372.16V15.78Z" fill="#E6E6E6"/>
<path opacity="0.4" d="M372.16 65.87H382.84V15.78H372.16V65.87Z" fill="#F5F5F5"/>
<path opacity="0.4" d="M404.37 15.78H382.84V70.25H404.37V15.78Z" fill="#E6E6E6"/>
<path opacity="0.4" d="M404.37 65.87H415.05V15.78H404.37V65.87Z" fill="#F5F5F5"/>
<path opacity="0.4" d="M436.58 15.78H415.05V70.25H436.58V15.78Z" fill="#E6E6E6"/>
</g>
<path d="M203.71 327.4H230.4V228H203.71V327.4Z" fill="#E6E6E6"/>
<path d="M208.16 327.4H203.72V318.45H212.82L208.16 327.4Z" fill="#F0F0F0"/>
<path d="M395.76 327.4H422.45V228H395.76V327.4Z" fill="#E6E6E6"/>
<path d="M203.72 323.96H399.63V228L203.72 228V323.96Z" fill="#F0F0F0"/>
<path d="M207.17 258.57H396.19V232.25L207.17 232.25V258.57Z" fill="#E6E6E6"/>
<path d="M255 240.43H348.39C352.72 240.43 356.87 237.18 359.85 231.43H243.52C246.5 237.18 250.64 240.43 255 240.43Z" fill="#F0F0F0"/>
<path d="M395.19 327.4H399.63V318.45H390.53L395.19 327.4Z" fill="#F0F0F0"/>
<path d="M207.17 289.14H396.19V262.82H207.17V289.14Z" fill="#E6E6E6"/>
<path d="M255 271H348.39C352.72 271 356.87 267.76 359.85 262H243.52C246.5 267.76 250.64 271 255 271Z" fill="#F0F0F0"/>
<path d="M207.17 319.71H396.19V293.39H207.17V319.71Z" fill="#E6E6E6"/>
<path d="M255 301.57H348.39C352.72 301.57 356.87 298.33 359.85 292.57H243.52C246.5 298.33 250.64 301.57 255 301.57Z" fill="#F0F0F0"/>
<path d="M250 372.56C357.082 372.56 443.89 367.492 443.89 361.24C443.89 354.988 357.082 349.92 250 349.92C142.917 349.92 56.11 354.988 56.11 361.24C56.11 367.492 142.917 372.56 250 372.56Z" fill="#F5F5F5"/>
<path d="M369.88 355.53H368.81C368.587 355.513 368.377 355.416 368.221 355.255C368.064 355.095 367.972 354.884 367.96 354.66L361.38 308.84H366.38L370.74 354.36C370.764 354.494 370.761 354.631 370.73 354.763C370.699 354.896 370.642 355.02 370.562 355.13C370.481 355.239 370.379 355.331 370.262 355.4C370.145 355.469 370.015 355.513 369.88 355.53V355.53Z" fill="#1876F2"/>
<path opacity="0.3" d="M369.88 355.53H368.81C368.587 355.513 368.377 355.416 368.221 355.255C368.064 355.095 367.972 354.884 367.96 354.66L361.38 308.84H366.38L370.74 354.36C370.764 354.494 370.761 354.631 370.73 354.763C370.699 354.896 370.642 355.02 370.562 355.13C370.481 355.239 370.379 355.331 370.262 355.4C370.145 355.469 370.015 355.513 369.88 355.53V355.53Z" fill="black"/>
<path d="M383.6 355.53H382.53C382.307 355.513 382.097 355.416 381.941 355.255C381.784 355.095 381.692 354.884 381.68 354.66L375.1 308.84H380.1L384.47 354.36C384.494 354.494 384.49 354.632 384.459 354.765C384.428 354.898 384.37 355.024 384.288 355.133C384.207 355.243 384.104 355.335 383.985 355.403C383.867 355.471 383.736 355.514 383.6 355.53V355.53Z" fill="#1876F2"/>
<path opacity="0.3" d="M383.6 355.53H382.53C382.307 355.513 382.097 355.416 381.941 355.255C381.784 355.095 381.692 354.884 381.68 354.66L375.1 308.84H380.1L384.47 354.36C384.494 354.494 384.49 354.632 384.459 354.765C384.428 354.898 384.37 355.024 384.288 355.133C384.207 355.243 384.104 355.335 383.985 355.403C383.867 355.471 383.736 355.514 383.6 355.53V355.53Z" fill="black"/>
<path d="M307.16 355.53H308.23C308.453 355.513 308.663 355.416 308.819 355.255C308.976 355.095 309.068 354.884 309.08 354.66L315.66 308.84H310.66L306.3 354.36C306.276 354.494 306.279 354.631 306.31 354.763C306.341 354.896 306.398 355.02 306.478 355.13C306.559 355.239 306.661 355.331 306.778 355.4C306.895 355.469 307.025 355.513 307.16 355.53V355.53Z" fill="#1876F2"/>
<path opacity="0.3" d="M307.16 355.53H308.23C308.453 355.513 308.663 355.416 308.819 355.255C308.976 355.095 309.068 354.884 309.08 354.66L315.66 308.84H310.66L306.3 354.36C306.276 354.494 306.279 354.631 306.31 354.763C306.341 354.896 306.398 355.02 306.478 355.13C306.559 355.239 306.661 355.331 306.778 355.4C306.895 355.469 307.025 355.513 307.16 355.53V355.53Z" fill="black"/>
<path d="M293.44 355.53H294.51C294.733 355.513 294.943 355.416 295.099 355.255C295.256 355.095 295.348 354.884 295.36 354.66L301.94 308.84H296.94L292.58 354.36C292.556 354.494 292.559 354.631 292.59 354.763C292.621 354.896 292.678 355.02 292.758 355.13C292.839 355.239 292.941 355.331 293.058 355.4C293.175 355.469 293.305 355.513 293.44 355.53V355.53Z" fill="#1876F2"/>
<path opacity="0.3" d="M293.44 355.53H294.51C294.733 355.513 294.943 355.416 295.099 355.255C295.256 355.095 295.348 354.884 295.36 354.66L301.94 308.84H296.94L292.58 354.36C292.556 354.494 292.559 354.631 292.59 354.763C292.621 354.896 292.678 355.02 292.758 355.13C292.839 355.239 292.941 355.331 293.058 355.4C293.175 355.469 293.305 355.513 293.44 355.53V355.53Z" fill="black"/>
<path d="M275.66 254.51H309.34C315.34 233.76 336.82 217.39 358.84 217.39H369.78C392.78 217.39 407.7 235.32 403 257.45C402.121 261.521 400.677 265.449 398.71 269.12L393.4 301.31C392.72 305.47 389.4 308.84 386 308.84H284.62C281.22 308.84 277.9 305.47 277.22 301.31L270.74 262C270.05 257.88 272.26 254.51 275.66 254.51Z" fill="#1876F2"/>
<path opacity="0.5" d="M275.66 254.51H309.34C315.34 233.76 336.82 217.39 358.84 217.39H369.78C392.78 217.39 407.7 235.32 403 257.45C402.121 261.521 400.677 265.449 398.71 269.12L393.4 301.31C392.72 305.47 389.4 308.84 386 308.84H284.62C281.22 308.84 277.9 305.47 277.22 301.31L270.74 262C270.05 257.88 272.26 254.51 275.66 254.51Z" fill="white"/>
<path d="M267.23 343.68L275.57 347.5C275.712 347.56 275.825 347.673 275.885 347.815C275.945 347.957 275.946 348.117 275.89 348.26L273.26 355.05C273.103 355.397 272.815 355.667 272.459 355.802C272.103 355.937 271.708 355.926 271.36 355.77C268.48 354.39 267.17 353.58 263.5 351.9C259.621 349.983 255.873 347.812 252.28 345.4C249.56 343.4 251.56 340.7 252.91 341.3C259.01 343.99 262.91 344.23 265.74 343.55C266.237 343.42 266.763 343.466 267.23 343.68Z" fill="#263238"/>
<path d="M326.38 241.43C326.38 241.43 273.05 242.09 272.22 263.11C271.04 293.33 266.58 343.5 266.58 343.5L275.58 347.5C275.58 347.5 291.34 297.16 291.9 273.56C306.9 269.84 345.47 273.56 350 261.3C352.22 254.923 352.808 248.092 351.71 241.43H326.38Z" fill="#1876F2"/>
<path opacity="0.2" d="M326.38 241.43C326.38 241.43 273.05 242.09 272.22 263.11C271.04 293.33 266.58 343.5 266.58 343.5L275.58 347.5C275.58 347.5 291.34 297.16 291.9 273.56C306.9 269.84 345.47 273.56 350 261.3C352.22 254.923 352.808 248.092 351.71 241.43H326.38Z" fill="black"/>
<path d="M337.73 186.12C337.26 188.06 336.79 189.81 336.26 191.63C335.73 193.45 335.18 195.22 334.6 197C333.43 200.56 332.14 204.1 330.66 207.6C329.178 211.178 327.457 214.652 325.51 218C324.488 219.77 323.359 221.476 322.13 223.11C320.776 224.919 319.216 226.563 317.48 228.01L317.33 228.14L317.01 228.38C316 229.039 314.849 229.45 313.65 229.58C312.896 229.672 312.134 229.672 311.38 229.58C310.332 229.451 309.302 229.203 308.31 228.84C306.772 228.286 305.278 227.617 303.84 226.84C301.274 225.413 298.793 223.837 296.41 222.12C294.09 220.45 291.85 218.72 289.67 216.92C287.49 215.12 285.4 213.28 283.33 211.3C282.799 210.784 282.473 210.094 282.412 209.356C282.351 208.618 282.56 207.884 282.999 207.288C283.439 206.693 284.079 206.276 284.802 206.117C285.525 205.957 286.281 206.065 286.93 206.42H286.98C289.34 207.73 291.72 209.12 294.11 210.42C296.5 211.72 298.86 213.03 301.23 214.25C303.6 215.47 305.98 216.63 308.23 217.57C309.262 218.01 310.329 218.365 311.42 218.63C311.744 218.727 312.082 218.771 312.42 218.76C312.49 218.76 312.42 218.76 312.21 218.76C311.701 218.818 311.213 219 310.79 219.29L310.31 219.65C311.295 218.691 312.164 217.621 312.9 216.46C313.778 215.142 314.582 213.776 315.31 212.37C316.843 209.352 318.215 206.254 319.42 203.09C320.65 199.87 321.8 196.57 322.87 193.23C323.94 189.89 324.94 186.46 325.87 183.23V183.11C326.295 181.559 327.312 180.238 328.703 179.431C330.094 178.625 331.746 178.398 333.303 178.8C334.86 179.202 336.196 180.201 337.022 181.58C337.849 182.959 338.099 184.608 337.72 186.17L337.73 186.12Z" fill="#263238"/>
<path d="M316.11 348H326.11C326.194 347.996 326.277 348.009 326.356 348.037C326.434 348.066 326.506 348.11 326.568 348.167C326.629 348.223 326.679 348.292 326.714 348.368C326.748 348.444 326.767 348.526 326.77 348.61L327.26 356.52C327.26 356.937 327.097 357.336 326.805 357.634C326.513 357.931 326.116 358.102 325.7 358.11C322.22 358.05 320.55 357.84 316.15 357.84C313.45 357.84 307.99 358.12 304.25 358.12C300.51 358.12 300.62 354.43 302.2 354.12C309.31 352.62 312.06 350.55 314.57 348.57C315.008 348.217 315.548 348.017 316.11 348V348Z" fill="#263238"/>
<path d="M340.75 241.43C340.75 241.43 292.38 245.51 293.57 266.52C294.87 289.52 316.11 348.02 316.11 348.02H325.89C325.89 348.02 317.52 294.45 314.57 271.02C328.21 271.02 359.83 273.58 364.37 261.29C366.59 254.913 367.175 248.081 366.07 241.42L340.75 241.43Z" fill="#1876F2"/>
<path d="M287.68 207.4C286.925 206.171 286.011 205.048 284.96 204.06C282.96 205.92 281.87 211.33 281.87 211.33L284.6 211.57C284.6 211.57 287.74 210.55 287.68 207.4Z" fill="#1876F2"/>
<path d="M277.64 202.54L274.53 201.19C274.126 201.015 273.672 200.993 273.253 201.127C272.834 201.262 272.477 201.543 272.25 201.92L270.77 204.36C270.566 204.704 270.479 205.105 270.525 205.502C270.57 205.899 270.744 206.271 271.02 206.56L275.29 211.01L282.41 210.72C282.812 210.706 283.204 210.585 283.543 210.369C283.883 210.152 284.158 209.849 284.34 209.49L285.16 207.88C285.418 207.395 285.489 206.833 285.358 206.299C285.227 205.766 284.903 205.3 284.45 204.99C282.14 203.47 277.64 202.54 277.64 202.54Z" fill="#FFC3BD"/>
<path d="M325.92 184.07C324.5 193.07 322.65 212.5 326.42 241.8L366.07 241.43C365.83 221.12 369.01 202.06 372.12 183.43C372.243 182.698 372.219 181.95 372.047 181.228C371.876 180.506 371.561 179.826 371.122 179.228C370.682 178.63 370.127 178.127 369.49 177.748C368.852 177.368 368.145 177.121 367.41 177.02C356.039 175.69 344.551 175.69 333.18 177.02C331.376 177.266 329.698 178.084 328.392 179.352C327.085 180.621 326.219 182.274 325.92 184.07V184.07Z" fill="#263238"/>
<path d="M372.48 180.9C373.65 183.79 374.58 186.56 375.54 189.42C376.5 192.28 377.32 195.15 378.11 198.06C378.9 200.97 379.59 203.94 380.11 206.97C380.715 210.064 381.119 213.194 381.32 216.34C381.38 217.15 381.39 217.99 381.4 218.83V220.11C381.386 221.424 381.042 222.713 380.4 223.86C379.973 224.605 379.41 225.263 378.74 225.8C378.428 226.05 378.093 226.271 377.74 226.46C377.421 226.636 377.086 226.784 376.74 226.9C375.799 227.25 374.803 227.426 373.8 227.42C372.614 227.393 371.437 227.208 370.3 226.87C368.636 226.37 367.017 225.731 365.46 224.96C364.01 224.24 362.65 223.49 361.32 222.71C356.15 219.623 351.243 216.114 346.65 212.22C346.072 211.746 345.689 211.076 345.572 210.338C345.455 209.6 345.614 208.845 346.017 208.216C346.421 207.587 347.041 207.128 347.76 206.926C348.48 206.724 349.248 206.793 349.92 207.12H349.99C355.16 209.58 360.42 212.12 365.54 214.23C366.82 214.75 368.09 215.23 369.34 215.66C370.448 216.067 371.589 216.378 372.75 216.59C373.21 216.67 373.62 216.66 373.57 216.59C373.299 216.565 373.026 216.613 372.78 216.73C372.623 216.79 372.469 216.861 372.32 216.94C372.129 217.042 371.948 217.163 371.78 217.3C371.384 217.609 371.046 217.984 370.78 218.41C370.48 218.908 370.302 219.47 370.26 220.05L370.21 219.14C370.15 218.52 370.1 217.91 370.01 217.27C369.177 211.848 367.926 206.499 366.27 201.27C364.67 195.9 362.83 190.42 360.96 185.21V185.16C360.443 183.658 360.531 182.014 361.203 180.576C361.876 179.137 363.082 178.017 364.566 177.451C366.05 176.885 367.695 176.918 369.155 177.543C370.615 178.168 371.775 179.336 372.39 180.8L372.48 180.9Z" fill="#263238"/>
<path d="M356.63 156.91L351.84 160.91L345.3 166.34C345.502 167.206 345.642 168.085 345.72 168.97C346.03 172.13 345.34 175.03 341.51 176.5C340.782 176.738 340.118 177.141 339.57 177.677C339.022 178.213 338.605 178.867 338.35 179.59C337.83 181.26 338.44 183.13 343.7 183.13C351.43 183.13 355.46 179.69 356.98 178C357.184 177.765 357.302 177.468 357.315 177.157C357.328 176.846 357.234 176.541 357.05 176.29C354 171.93 355.38 162.33 356.63 156.91Z" fill="#FFC3BD"/>
<path d="M343.51 181.41C343.846 181.798 344.077 182.267 344.18 182.77C344.577 182.232 345.068 181.771 345.63 181.41C346.295 181.723 346.886 182.173 347.364 182.732C347.841 183.29 348.195 183.944 348.4 184.65C346.943 184.351 345.54 183.832 344.24 183.11C343.383 183.585 342.436 183.878 341.46 183.97C341.52 182.24 343.51 181.41 343.51 181.41Z" fill="#1876F2"/>
<path d="M345.63 181.41C347.018 183.082 347.933 185.095 348.28 187.24C348.28 187.24 361.08 184.04 360.48 175.69C359.355 175.159 358.159 174.792 356.93 174.6C356.93 174.6 354.18 179.6 345.63 181.41Z" fill="#1876F2"/>
<path d="M343.51 181.41C342.11 183.095 341.142 185.096 340.69 187.24C340.69 187.24 334.13 181.24 340.52 175.76C341.623 175.409 342.759 175.171 343.91 175.05C343.91 175.05 339.66 178.5 343.51 181.41Z" fill="#1876F2"/>
<path opacity="0.2" d="M345.3 166.31C345.501 167.179 345.641 168.061 345.72 168.95C348.16 168.46 351.41 165.87 351.72 163.38C351.84 162.556 351.87 161.721 351.81 160.89L345.3 166.31Z" fill="black"/>
<path d="M338.3 139.69C332.3 143.96 335.64 153.97 340.78 150.14C345.92 146.31 343.2 136.21 338.3 139.69Z" fill="#263238"/>
<path d="M358.61 148.61C356.94 156.27 356.36 160.83 351.83 164.33C350.371 165.482 348.624 166.214 346.779 166.446C344.935 166.677 343.061 166.4 341.363 165.645C339.664 164.889 338.204 163.683 337.14 162.158C336.077 160.632 335.451 158.845 335.33 156.99C334.73 149.85 337.56 138.51 345.62 136.34C347.355 135.823 349.196 135.771 350.957 136.19C352.718 136.609 354.338 137.484 355.655 138.728C356.971 139.971 357.937 141.538 358.456 143.273C358.974 145.008 359.028 146.848 358.61 148.61V148.61Z" fill="#FFC3BD"/>
<path d="M355.06 142.92C350.81 141.75 339.85 144.54 335.96 140.39C331.79 135.94 337.87 133.77 339.67 135.32C337.4 132.72 338.24 129.94 341.46 130.19C343.81 130.37 344.55 132.97 344.55 132.97C344.55 132.97 344.16 128.42 348.2 128.74C351.86 129.02 351.87 133.96 351.87 133.96C351.87 133.96 360.61 131.49 363.53 139.83C369.03 139.71 368.91 151.29 357.84 155.41C353.35 153.19 353.14 145.29 355.06 142.92Z" fill="#263238"/>
<path d="M362.35 141.5C362.062 141.518 361.778 141.422 361.559 141.234C361.34 141.046 361.203 140.78 361.177 140.492C361.151 140.205 361.238 139.918 361.42 139.694C361.601 139.469 361.863 139.325 362.15 139.29C362.451 139.1 362.679 138.815 362.8 138.48C362.961 138.16 363.055 137.81 363.076 137.452C363.096 137.095 363.043 136.736 362.92 136.4C362.836 136.266 362.782 136.116 362.76 135.96C362.739 135.803 362.751 135.644 362.796 135.493C362.841 135.342 362.918 135.202 363.022 135.083C363.125 134.963 363.253 134.867 363.396 134.802C363.54 134.736 363.696 134.701 363.853 134.7C364.011 134.699 364.168 134.732 364.312 134.796C364.456 134.86 364.585 134.954 364.69 135.072C364.795 135.19 364.873 135.329 364.92 135.48C365.192 136.149 365.311 136.871 365.27 137.592C365.228 138.313 365.027 139.016 364.68 139.65C364.484 140.098 364.189 140.496 363.816 140.813C363.444 141.13 363.004 141.358 362.53 141.48C362.471 141.495 362.411 141.502 362.35 141.5Z" fill="#263238"/>
<path d="M359.86 155.72C358.82 157.07 357.323 157.995 355.65 158.32C353.48 158.71 352.82 156.71 353.78 154.78C354.64 153.03 356.78 150.73 358.78 151.23C360.78 151.73 361.14 154 359.86 155.72Z" fill="#FFC3BD"/>
<path d="M345.48 149.31C345.38 149.94 344.97 150.41 344.56 150.36C344.15 150.31 343.89 149.76 343.98 149.13C344.07 148.5 344.49 148.03 344.91 148.13C345.33 148.23 345.57 148.68 345.48 149.31Z" fill="#263238"/>
<path d="M338.34 148.46C338.24 149.09 337.83 149.56 337.42 149.46C337.01 149.36 336.75 148.86 336.84 148.23C336.93 147.6 337.35 147.13 337.77 147.18C338.19 147.23 338.44 147.83 338.34 148.46Z" fill="#263238"/>
<path d="M340.52 148.71C339.724 150.334 338.715 151.844 337.52 153.2C337.874 153.483 338.286 153.684 338.727 153.79C339.168 153.895 339.626 153.902 340.07 153.81L340.52 148.71Z" fill="#ED847E"/>
<path d="M343 157.05C343.743 157.06 344.48 156.92 345.167 156.638C345.855 156.356 346.478 155.938 347 155.41C347.025 155.372 347.035 155.326 347.029 155.282C347.022 155.237 347.001 155.195 346.967 155.165C346.933 155.135 346.89 155.118 346.844 155.117C346.799 155.116 346.755 155.131 346.72 155.16C346.149 155.724 345.457 156.15 344.696 156.405C343.935 156.66 343.125 156.737 342.33 156.63C342.282 156.627 342.233 156.641 342.195 156.67C342.156 156.7 342.13 156.742 342.12 156.79C342.117 156.815 342.119 156.84 342.126 156.864C342.134 156.888 342.145 156.911 342.161 156.93C342.177 156.95 342.197 156.966 342.219 156.978C342.241 156.99 342.265 156.998 342.29 157C342.526 157.03 342.763 157.047 343 157.05V157.05Z" fill="#263238"/>
<path d="M348.35 145.68C348.409 145.668 348.464 145.64 348.51 145.6C348.545 145.566 348.573 145.524 348.593 145.479C348.612 145.433 348.622 145.384 348.622 145.335C348.622 145.286 348.612 145.237 348.593 145.191C348.573 145.146 348.545 145.104 348.51 145.07C348.131 144.622 347.646 144.274 347.1 144.058C346.554 143.842 345.963 143.763 345.38 143.83C345.331 143.838 345.285 143.855 345.243 143.881C345.201 143.907 345.165 143.941 345.136 143.981C345.107 144.021 345.086 144.066 345.075 144.114C345.064 144.162 345.062 144.211 345.07 144.26C345.078 144.309 345.095 144.355 345.121 144.397C345.147 144.439 345.181 144.475 345.221 144.504C345.261 144.533 345.306 144.553 345.354 144.565C345.402 144.576 345.451 144.578 345.5 144.57C345.96 144.525 346.425 144.593 346.853 144.767C347.282 144.941 347.661 145.217 347.96 145.57C348.007 145.624 348.069 145.664 348.139 145.683C348.208 145.703 348.281 145.702 348.35 145.68V145.68Z" fill="#263238"/>
<path d="M335.79 145.27C335.848 145.286 335.909 145.288 335.968 145.276C336.028 145.264 336.083 145.238 336.13 145.2C336.489 144.881 336.917 144.65 337.38 144.525C337.843 144.4 338.33 144.384 338.8 144.48C338.895 144.505 338.997 144.492 339.083 144.443C339.168 144.395 339.232 144.315 339.26 144.22C339.274 144.173 339.278 144.123 339.272 144.074C339.266 144.025 339.251 143.978 339.227 143.935C339.202 143.893 339.17 143.855 339.131 143.825C339.092 143.795 339.048 143.773 339 143.76V143.76C338.414 143.634 337.807 143.646 337.226 143.797C336.646 143.949 336.11 144.234 335.66 144.63C335.585 144.692 335.537 144.782 335.528 144.88C335.518 144.977 335.548 145.074 335.61 145.15C335.656 145.208 335.719 145.249 335.79 145.27V145.27Z" fill="#263238"/>
<path d="M348.81 201.94L344.43 199.22C344.118 199.025 343.771 198.895 343.408 198.836C343.046 198.776 342.675 198.79 342.317 198.876C341.96 198.961 341.623 199.117 341.327 199.334C341.03 199.551 340.78 199.825 340.59 200.14L340.08 201C339.775 201.501 339.638 202.086 339.688 202.671C339.739 203.255 339.974 203.808 340.36 204.25L343.36 207.72C343.36 207.72 345.99 213.85 349.04 212.23L351.36 208.23L348.81 201.94Z" fill="#FFC3BD"/>
<path d="M353.32 209.78C352.72 208.328 351.941 206.958 351 205.7C348.8 207.58 347 213.58 347 213.58L349.69 214.16C350.669 213.885 351.54 213.319 352.189 212.537C352.837 211.754 353.232 210.792 353.32 209.78V209.78Z" fill="#1876F2"/>
<path d="M386.83 254.51H334.91C331.51 254.51 329.31 257.88 329.99 262.04L336.47 301.31C337.16 305.47 340.47 308.84 343.88 308.84H380.4L386.83 254.51Z" fill="#1876F2"/>
<path opacity="0.5" d="M386.83 254.51H334.91C331.51 254.51 329.31 257.88 329.99 262.04L336.47 301.31C337.16 305.47 340.47 308.84 343.88 308.84H380.4L386.83 254.51Z" fill="white"/>
<path d="M147.28 358.9H148.78C149.045 358.9 149.3 358.795 149.487 358.607C149.675 358.42 149.78 358.165 149.78 357.9L158 234H151.81L146.31 357.76C146.29 357.9 146.3 358.043 146.34 358.179C146.379 358.315 146.447 358.441 146.539 358.548C146.63 358.656 146.744 358.743 146.872 358.804C146.999 358.864 147.139 358.897 147.28 358.9Z" fill="#1876F2"/>
<path opacity="0.3" d="M147.28 358.9H148.78C149.045 358.9 149.3 358.795 149.487 358.607C149.675 358.42 149.78 358.165 149.78 357.9L158 234H151.81L146.31 357.76C146.29 357.9 146.3 358.043 146.34 358.179C146.379 358.315 146.447 358.441 146.539 358.548C146.63 358.656 146.744 358.743 146.872 358.804C146.999 358.864 147.139 358.897 147.28 358.9Z" fill="white"/>
<path d="M130.28 358.9H131.78C132.045 358.9 132.3 358.795 132.487 358.607C132.675 358.42 132.78 358.165 132.78 357.9L141 234H134.8L129.31 357.76C129.29 357.9 129.3 358.043 129.34 358.179C129.379 358.315 129.447 358.441 129.539 358.548C129.63 358.656 129.744 358.743 129.872 358.804C129.999 358.864 130.139 358.897 130.28 358.9Z" fill="#1876F2"/>
<path opacity="0.3" d="M130.28 358.9H131.78C132.045 358.9 132.3 358.795 132.487 358.607C132.675 358.42 132.78 358.165 132.78 357.9L141 234H134.8L129.31 357.76C129.29 357.9 129.3 358.043 129.34 358.179C129.379 358.315 129.447 358.441 129.539 358.548C129.63 358.656 129.744 358.743 129.872 358.804C129.999 358.864 130.139 358.897 130.28 358.9Z" fill="white"/>
<path d="M339.93 358.9H338.43C338.165 358.9 337.91 358.795 337.723 358.607C337.535 358.42 337.43 358.165 337.43 357.9L329.21 234H335.4L340.9 357.76C340.92 357.9 340.91 358.043 340.87 358.179C340.831 358.315 340.763 358.441 340.671 358.548C340.58 358.656 340.466 358.743 340.339 358.804C340.211 358.864 340.071 358.897 339.93 358.9V358.9Z" fill="#1876F2"/>
<path opacity="0.3" d="M339.93 358.9H338.43C338.165 358.9 337.91 358.795 337.723 358.607C337.535 358.42 337.43 358.165 337.43 357.9L329.21 234H335.4L340.9 357.76C340.92 357.9 340.91 358.043 340.87 358.179C340.831 358.315 340.763 358.441 340.671 358.548C340.58 358.656 340.466 358.743 340.339 358.804C340.211 358.864 340.071 358.897 339.93 358.9V358.9Z" fill="white"/>
<path d="M356.93 358.9H355.43C355.165 358.9 354.91 358.795 354.723 358.607C354.535 358.42 354.43 358.165 354.43 357.9L346.21 234H352.41L357.9 357.76C357.92 357.9 357.91 358.043 357.87 358.179C357.831 358.315 357.763 358.441 357.671 358.548C357.58 358.656 357.466 358.743 357.339 358.804C357.211 358.864 357.071 358.897 356.93 358.9V358.9Z" fill="#1876F2"/>
<path opacity="0.3" d="M356.93 358.9H355.43C355.165 358.9 354.91 358.795 354.723 358.607C354.535 358.42 354.43 358.165 354.43 357.9L346.21 234H352.41L357.9 357.76C357.92 357.9 357.91 358.043 357.87 358.179C357.831 358.315 357.763 358.441 357.671 358.548C357.58 358.656 357.466 358.743 357.339 358.804C357.211 358.864 357.071 358.897 356.93 358.9V358.9Z" fill="white"/>
<path d="M364.08 231.48H122.78V234.03H364.08V231.48Z" fill="#1876F2"/>
<path d="M118.76 192L116.48 208.77C115.76 214.35 115.01 219.95 114.48 225.45C114.41 226.14 114.36 226.81 114.3 227.45L114.22 228.45C114.237 228.284 114.237 228.116 114.22 227.95C114.201 227.79 114.164 227.632 114.11 227.48C114.069 227.36 114.019 227.243 113.96 227.13C113.92 227.049 113.873 226.972 113.82 226.9C113.64 226.67 113.62 226.7 113.67 226.75C113.772 226.859 113.886 226.956 114.01 227.04C114.431 227.328 114.872 227.586 115.33 227.81C117.71 228.898 120.167 229.811 122.68 230.54C127.92 232.13 133.43 233.54 138.87 234.85L138.25 239.62C132.434 239.445 126.639 238.847 120.91 237.83C117.875 237.32 114.892 236.533 112 235.48C111.15 235.152 110.325 234.765 109.53 234.32C109.039 234.04 108.571 233.723 108.13 233.37C107.518 232.886 106.982 232.313 106.54 231.67C106.222 231.195 105.966 230.681 105.78 230.14C105.678 229.812 105.598 229.478 105.54 229.14C105.503 228.808 105.483 228.474 105.48 228.14V227.03C105.48 226.29 105.48 225.55 105.54 224.82C105.78 218.98 106.31 213.28 106.93 207.58C107.55 201.88 108.27 196.23 109.16 190.58L118.76 192Z" fill="#7F3E3B"/>
<path d="M151.41 240L147.74 243.35C147.32 243.731 146.796 243.979 146.235 244.061C145.674 244.143 145.101 244.055 144.59 243.81L140.54 241.86C140.54 241.86 134.54 241.61 133.67 237.94L135.23 235.09L144.54 234.09C145.495 233.987 146.458 234.202 147.28 234.7L151.12 237.05C151.361 237.203 151.565 237.409 151.715 237.652C151.865 237.896 151.957 238.17 151.985 238.454C152.013 238.739 151.976 239.026 151.876 239.294C151.776 239.561 151.617 239.803 151.41 240V240Z" fill="#7F3E3B"/>
<path d="M129.45 157.56C130.45 163.32 131.21 173.83 127.09 177.56C127.09 177.56 137.09 182.82 143.72 192C150.72 186.42 144.87 178.09 144.87 178.09C138.53 176.38 138.87 171.65 140.08 167.24L129.45 157.56Z" fill="#7F3E3B"/>
<path d="M148.24 181.59C148.24 181.59 147.71 176.71 145.05 174.3C142.82 172.3 131.05 173.4 127.38 173.81C127.039 173.851 126.714 173.977 126.435 174.176C126.155 174.375 125.93 174.641 125.78 174.95L123.1 180.55L148.24 181.59Z" fill="#1876F2"/>
<path opacity="0.8" d="M148.24 181.59C148.24 181.59 147.71 176.71 145.05 174.3C142.82 172.3 131.05 173.4 127.38 173.81C127.039 173.851 126.714 173.977 126.435 174.176C126.155 174.375 125.93 174.641 125.78 174.95L123.1 180.55L148.24 181.59Z" fill="white"/>
<path d="M115.73 179C108.49 181.36 106.93 191.07 107.59 198.62L122.2 207.62C122.2 207.62 125.75 196.62 125.72 190.7C125.69 184.44 120.65 177.42 115.73 179Z" fill="#1876F2"/>
<path d="M118.56 205.43C118.376 205.434 118.193 205.402 118.021 205.335C117.85 205.268 117.693 205.168 117.56 205.04C117.5 204.975 117.447 204.905 117.4 204.83C117.345 204.757 117.301 204.676 117.27 204.59C117.237 204.509 117.211 204.425 117.19 204.34C117.18 204.254 117.18 204.166 117.19 204.08C117.186 203.895 117.219 203.711 117.288 203.539C117.356 203.367 117.459 203.211 117.59 203.08C117.85 202.835 118.193 202.699 118.55 202.699C118.907 202.699 119.25 202.835 119.51 203.08C119.641 203.211 119.744 203.367 119.812 203.539C119.881 203.711 119.914 203.895 119.91 204.08C119.92 204.166 119.92 204.254 119.91 204.34C119.894 204.426 119.868 204.511 119.83 204.59C119.802 204.676 119.762 204.756 119.71 204.83L119.54 205.04C119.411 205.167 119.258 205.267 119.089 205.334C118.921 205.401 118.741 205.434 118.56 205.43V205.43Z" fill="white"/>
<path d="M115.75 204.51C115.501 204.414 115.286 204.247 115.132 204.031C114.977 203.814 114.89 203.556 114.88 203.29V203.29C114.684 203.468 114.44 203.583 114.178 203.623C113.917 203.662 113.649 203.623 113.41 203.51C113.171 203.398 112.969 203.22 112.829 202.997C112.689 202.773 112.616 202.514 112.62 202.25V202.25C112.414 202.416 112.163 202.518 111.9 202.541C111.636 202.564 111.372 202.508 111.14 202.38V202.38C110.908 202.256 110.717 202.067 110.591 201.836C110.465 201.605 110.409 201.342 110.43 201.08V201.08C110.213 201.232 109.957 201.318 109.692 201.327C109.428 201.336 109.166 201.268 108.94 201.13V201.13C108.633 200.943 108.413 200.643 108.327 200.295C108.241 199.946 108.296 199.578 108.48 199.27V199.27C108.668 198.963 108.97 198.742 109.321 198.656C109.671 198.57 110.04 198.625 110.35 198.81V198.81C110.562 198.944 110.735 199.133 110.849 199.356C110.963 199.579 111.015 199.829 111 200.08V200.08C111.204 199.933 111.446 199.847 111.697 199.831C111.948 199.815 112.199 199.87 112.42 199.99V199.99C112.641 200.109 112.826 200.287 112.953 200.504C113.08 200.721 113.144 200.969 113.14 201.22V201.22C113.336 201.063 113.572 200.965 113.821 200.935C114.07 200.905 114.322 200.945 114.55 201.05C114.778 201.155 114.972 201.32 115.111 201.529C115.251 201.737 115.33 201.98 115.34 202.23V202.23C115.529 202.065 115.759 201.955 116.005 201.911C116.252 201.867 116.506 201.891 116.74 201.98V201.98C117.073 202.114 117.34 202.374 117.483 202.703C117.625 203.033 117.631 203.406 117.5 203.74C117.401 203.994 117.228 204.212 117.003 204.365C116.778 204.519 116.512 204.6 116.24 204.6C116.073 204.598 115.907 204.568 115.75 204.51V204.51Z" fill="white"/>
<path d="M107.59 200C107.5 200.01 107.41 200.01 107.32 200C107.234 199.984 107.149 199.958 107.07 199.92C106.984 199.892 106.904 199.852 106.83 199.8L106.63 199.63C106.565 199.571 106.508 199.503 106.46 199.43C106.46 199.35 106.37 199.27 106.33 199.19C106.299 199.108 106.272 199.025 106.25 198.94C106.245 198.85 106.245 198.76 106.25 198.67C106.245 198.583 106.245 198.497 106.25 198.41C106.272 198.322 106.299 198.235 106.33 198.15C106.363 198.068 106.407 197.991 106.46 197.92C106.511 197.845 106.567 197.775 106.63 197.71L106.83 197.54C106.906 197.492 106.986 197.452 107.07 197.42L107.32 197.34C107.538 197.301 107.762 197.314 107.975 197.378C108.187 197.442 108.38 197.556 108.54 197.71C108.603 197.775 108.659 197.845 108.71 197.92C108.759 197.993 108.803 198.07 108.84 198.15C108.873 198.234 108.896 198.321 108.91 198.41C108.92 198.496 108.92 198.584 108.91 198.67C108.92 198.76 108.92 198.85 108.91 198.94C108.896 199.026 108.873 199.11 108.84 199.19C108.84 199.27 108.76 199.35 108.71 199.43C108.662 199.503 108.605 199.571 108.54 199.63C108.283 199.871 107.942 200.003 107.59 200V200Z" fill="white"/>
<path d="M161.77 193.13C161.16 201.45 159.31 215.45 154.77 239.03L115.63 237.87C116.63 223.42 115.1 212.65 111.56 187.36C111.409 186.266 111.48 185.152 111.769 184.086C112.057 183.02 112.558 182.023 113.24 181.154C113.922 180.285 114.772 179.563 115.739 179.03C116.707 178.496 117.771 178.163 118.87 178.05C121.38 177.79 124.24 177.58 127.11 177.52C133.042 177.274 138.983 177.451 144.89 178.05C146.79 178.28 148.76 178.59 150.64 178.91C153.932 179.471 156.896 181.238 158.954 183.868C161.013 186.498 162.016 189.8 161.77 193.13V193.13Z" fill="#1876F2"/>
<path d="M149.7 147C149.79 147.77 150.28 148.35 150.78 148.28C151.28 148.21 151.62 147.55 151.53 146.78C151.44 146.01 150.95 145.43 150.45 145.49C149.95 145.55 149.61 146.2 149.7 147Z" fill="#263238"/>
<path d="M150.23 145.54L152.02 144.78C152.02 144.78 151.24 146.34 150.23 145.54Z" fill="#263238"/>
<path d="M150 148.17C150.898 149.849 152.022 151.396 153.34 152.77C152.981 153.1 152.554 153.347 152.089 153.494C151.625 153.641 151.133 153.684 150.65 153.62L150 148.17Z" fill="#630F0F"/>
<path d="M149.79 140.21C149.829 140.14 149.85 140.061 149.85 139.98C149.85 139.899 149.829 139.82 149.79 139.75C149.736 139.642 149.642 139.559 149.528 139.52C149.414 139.481 149.289 139.488 149.18 139.54C148.517 139.835 147.934 140.285 147.482 140.852C147.029 141.42 146.72 142.088 146.58 142.8C146.572 142.859 146.575 142.919 146.59 142.977C146.605 143.035 146.632 143.089 146.668 143.137C146.704 143.184 146.75 143.224 146.802 143.254C146.853 143.284 146.911 143.303 146.97 143.31C147.029 143.318 147.089 143.315 147.147 143.3C147.205 143.285 147.259 143.258 147.307 143.222C147.354 143.186 147.394 143.14 147.424 143.088C147.454 143.037 147.473 142.979 147.48 142.92V142.92C147.602 142.359 147.854 141.834 148.218 141.389C148.581 140.944 149.044 140.592 149.57 140.36C149.659 140.338 149.737 140.285 149.79 140.21Z" fill="#263238"/>
<path d="M123.06 146.8C124.78 156.21 125.31 160.23 130.68 164.53C138.76 170.99 149.95 166.82 151.08 157.08C152.08 148.31 149.08 134.39 139.38 131.73C137.236 131.134 134.975 131.095 132.812 131.618C130.649 132.141 128.656 133.208 127.021 134.718C125.386 136.227 124.164 138.13 123.471 140.244C122.778 142.359 122.636 144.615 123.06 146.8V146.8Z" fill="#7F3E3B"/>
<path d="M143.8 149.44C145.38 154.61 149.16 167.11 140.8 169.9C134.27 172.08 113.8 173.82 111.45 161.83C109.02 149.44 120.07 140.61 120.07 140.61C120.07 140.61 111.31 133.43 116.92 125.61C124.15 115.53 141.47 121.23 146.6 128.35C151.61 135.28 143.8 149.44 143.8 149.44Z" fill="#263238"/>
<path d="M128 171.62C124.228 171.616 120.493 170.882 117 169.46C112.36 167.46 109.65 164.37 109.16 160.52C107.52 147.45 119.68 140.27 119.81 140.2L120.29 141.03C120.17 141.1 108.56 147.97 110.12 160.4C110.68 164.81 114.38 167.28 117.39 168.57C123.33 171.13 131 171.11 132.86 169.75L133.43 170.53C132.49 171.24 130.45 171.62 128 171.62Z" fill="#263238"/>
<path d="M116.31 138.74C116.2 140.41 114.82 142.74 120.61 143.57C126.4 144.4 134.46 144.35 136.12 142.96C137.78 141.57 139.4 138.23 135.94 138.53C132.48 138.83 116.5 135.88 116.31 138.74Z" fill="#1876F2"/>
<path d="M140.63 150.91C141.575 152.657 143.17 153.961 145.07 154.54C147.59 155.28 148.89 153.03 148.22 150.63C147.61 148.47 145.56 145.48 143.02 145.79C140.48 146.1 139.5 148.76 140.63 150.91Z" fill="#7F3E3B"/>
<path d="M201.64 348.56L210.92 348.38L206.43 325.22L197.15 325.39L201.64 348.56Z" fill="#7F3E3B"/>
<path d="M208.6 338.47C211.05 347.72 220.08 357.47 220.08 357.47L207.2 354.19L201.57 346.19L202.57 344.07L208.6 338.47Z" fill="#7F3E3B"/>
<path d="M199.45 342.77C199.424 343.853 199.487 344.937 199.64 346.01C200.19 349.83 201.87 360.01 201.87 360.01H202.75C202.352 356.911 202.115 353.794 202.04 350.67C202.16 348.16 203.78 352.6 205.74 355.12C207.7 357.64 211.23 359.93 216.94 360.12C223.62 360.33 226.29 360.05 224.15 358.38C222.01 356.71 217.45 355.63 217.45 355.63C213.772 354.055 210.641 351.428 208.45 348.08C206.289 345.072 203.449 342.615 200.16 340.91C199.6 340.94 199.49 342 199.45 342.77Z" fill="#263238"/>
<path d="M234.51 317.09L246.35 317.46L233.1 297.76L224.9 304.77L234.51 317.09Z" fill="#7F3E3B"/>
<path d="M237.32 308.73C245.93 312.73 259.71 311.95 259.71 311.95L248.51 320.95L238.9 320.23L237.9 318.1L237.32 308.73Z" fill="#7F3E3B"/>
<path d="M235.5 318.94C236.276 319.694 237.112 320.383 238 321C241.14 323.19 249.63 328.8 249.63 328.8L250.17 328.11C247.641 326.293 245.208 324.347 242.88 322.28C241.1 320.46 245.37 322.23 248.43 322.41C251.49 322.59 255.35 321.41 259 317.01C263.29 311.9 264.72 309.61 262.18 310.15C259.64 310.69 256.02 313.53 256.02 313.53C252.62 315.35 248.726 316.03 244.91 315.47C241.366 315.109 237.789 315.664 234.52 317.08C234.25 317.58 234.92 318.36 235.5 318.94Z" fill="#263238"/>
<path d="M141.1 238.35C141.1 238.35 204.46 229 211 245.22C222.42 273.48 238.53 305.86 238.53 305.86L230.75 312.3C230.75 312.3 203.12 286.72 193.3 258.3C181.56 262.1 144.21 274.3 130.53 274.3C115.92 274.3 109.95 261.85 115.23 241.16C115.461 240.274 115.979 239.488 116.702 238.926C117.425 238.363 118.314 238.056 119.23 238.05C128.5 238.14 141.1 238.35 141.1 238.35Z" fill="#263238"/>
<path d="M147.17 246.6C147.17 246.6 199.17 245.04 199.62 263.46C200.34 293.93 208.93 337.59 208.93 337.59L199.44 338.47C199.44 338.47 183.93 303.74 179.83 274C161.31 275.2 144.23 274.37 130.55 274.37C115.22 274.37 113.95 257.54 128.87 237.89C138 237.87 147.17 246.6 147.17 246.6Z" fill="#263238"/>
<path d="M115.09 235.55L114 239C113.85 239.27 114.16 239.55 114.62 239.57L154.9 240.76C155.25 240.76 155.55 240.61 155.58 240.39L156.04 236.9C156.04 236.65 155.77 236.44 155.38 236.43L115.75 235.25C115.623 235.236 115.495 235.257 115.379 235.309C115.263 235.362 115.163 235.445 115.09 235.55V235.55Z" fill="white"/>
<path d="M120.28 240.14H119.22C119.01 240.14 118.85 240.02 118.87 239.89L119.5 235.35C119.5 235.22 119.71 235.12 119.92 235.12H120.98C121.19 235.12 121.35 235.24 121.33 235.37L120.7 239.9C120.68 240.05 120.49 240.15 120.28 240.14Z" fill="#263238"/>
<path d="M151.89 241.09H150.83C150.62 241.09 150.46 240.97 150.48 240.84L151.12 236.3C151.12 236.17 151.32 236.07 151.53 236.07H152.59C152.81 236.07 152.96 236.19 152.95 236.32L152.31 240.86C152.29 241 152.11 241.09 151.89 241.09Z" fill="#263238"/>
<path d="M136.09 240.61H135.03C134.81 240.61 134.66 240.49 134.68 240.36L135.31 235.82C135.31 235.69 135.52 235.59 135.73 235.59H136.79C137 235.59 137.16 235.71 137.14 235.84L136.51 240.38C136.49 240.52 136.3 240.62 136.09 240.61Z" fill="#263238"/>
<path d="M184.33 196.61H209.62C209.808 196.611 209.993 196.655 210.161 196.739C210.33 196.823 210.476 196.945 210.589 197.095C210.702 197.245 210.78 197.419 210.814 197.604C210.849 197.789 210.841 197.979 210.79 198.16L201.33 230.61C201.258 230.862 201.106 231.083 200.896 231.24C200.687 231.397 200.432 231.481 200.17 231.48H174.87C174.681 231.482 174.495 231.439 174.326 231.356C174.157 231.272 174.01 231.15 173.897 230.999C173.784 230.848 173.708 230.673 173.676 230.487C173.643 230.301 173.655 230.11 173.71 229.93L183.16 197.48C183.234 197.227 183.388 197.006 183.599 196.849C183.81 196.692 184.067 196.608 184.33 196.61Z" fill="#1876F2"/>
<path d="M184.79 197.8L209.38 198.38L199.67 228.99L175.08 228.4L184.79 197.8Z" fill="#E0E0E0"/>
<path d="M184.02 197.5L208.61 197.6L199.5 228.39L174.91 228.29L184.02 197.5Z" fill="white"/>
<path d="M161.84 198.14C161.84 199.14 161.99 200.32 162.07 201.43C162.15 202.54 162.3 203.7 162.45 204.83C162.73 207.09 163.103 209.317 163.57 211.51C164.019 213.648 164.613 215.753 165.35 217.81C165.72 218.81 166.13 219.81 166.57 220.69C166.79 221.15 167.03 221.58 167.27 222.02L167.64 222.63C167.64 222.63 167.57 222.63 167.64 222.63C168.099 223.048 168.641 223.365 169.23 223.56C170.166 223.923 171.129 224.214 172.11 224.43C174.318 224.896 176.552 225.23 178.8 225.43C183.42 225.88 188.25 226.1 192.97 226.2L193.45 230.99C188.535 231.965 183.548 232.53 178.54 232.68C175.939 232.76 173.336 232.653 170.75 232.36C169.333 232.186 167.932 231.902 166.56 231.51C164.805 231.046 163.174 230.202 161.78 229.04C161.313 228.636 160.891 228.184 160.52 227.69L159.88 226.79C159.47 226.19 159.07 225.59 158.73 224.98C158.017 223.791 157.386 222.555 156.84 221.28C155.772 218.836 154.909 216.307 154.26 213.72C153.613 211.205 153.115 208.654 152.77 206.08C152.6 204.81 152.47 203.53 152.36 202.24C152.25 200.95 152.18 199.72 152.16 198.24L161.84 198.14Z" fill="#7F3E3B"/>
<path d="M158.55 183.39C164.85 189.32 163.33 204.77 163.33 204.77L151.27 206.88C151.27 206.88 143.82 195.8 146.44 191.16C149.16 186.32 155.15 180.18 158.55 183.39Z" fill="#1876F2"/>
<path d="M163.33 206.13C163.145 206.133 162.961 206.099 162.79 206.031C162.618 205.962 162.462 205.86 162.33 205.73C162.266 205.667 162.209 205.596 162.16 205.52C162.114 205.447 162.074 205.37 162.04 205.29C162.02 205.194 162.006 205.098 162 205C161.995 204.913 161.995 204.827 162 204.74C161.994 204.556 162.025 204.372 162.092 204.2C162.159 204.028 162.261 203.871 162.39 203.74C162.455 203.678 162.526 203.621 162.6 203.57C162.671 203.52 162.748 203.48 162.83 203.45C162.914 203.414 163.001 203.387 163.09 203.37C163.287 203.332 163.489 203.337 163.683 203.386C163.877 203.435 164.058 203.527 164.213 203.654C164.368 203.781 164.492 203.94 164.578 204.121C164.664 204.302 164.709 204.5 164.71 204.7C164.72 204.786 164.72 204.874 164.71 204.96C164.694 205.05 164.667 205.137 164.63 205.22C164.6 205.302 164.56 205.379 164.51 205.45C164.461 205.526 164.404 205.597 164.34 205.66C164.214 205.805 164.059 205.921 163.885 206.002C163.711 206.083 163.522 206.127 163.33 206.13V206.13Z" fill="white"/>
<path d="M152.37 206.85C152.34 206.491 152.453 206.134 152.686 205.858C152.918 205.583 153.251 205.411 153.61 205.38V205.38C153.86 205.357 154.112 205.404 154.337 205.518C154.561 205.631 154.75 205.805 154.88 206.02C154.961 205.782 155.105 205.57 155.297 205.408C155.489 205.246 155.722 205.14 155.97 205.1V205.1C156.22 205.066 156.474 205.102 156.704 205.202C156.935 205.303 157.134 205.465 157.28 205.67V205.67C157.337 205.427 157.461 205.204 157.637 205.027C157.814 204.851 158.037 204.727 158.28 204.67V204.67C158.527 204.618 158.783 204.637 159.02 204.723C159.257 204.81 159.465 204.961 159.62 205.16C159.679 204.918 159.803 204.696 159.98 204.52C160.156 204.343 160.378 204.219 160.62 204.16V204.16C160.795 204.114 160.977 204.103 161.156 204.129C161.335 204.154 161.507 204.216 161.662 204.309C161.816 204.402 161.951 204.525 162.057 204.672C162.163 204.818 162.239 204.984 162.28 205.16C162.325 205.335 162.334 205.517 162.308 205.695C162.282 205.873 162.221 206.045 162.127 206.199C162.034 206.354 161.912 206.488 161.766 206.595C161.621 206.701 161.455 206.778 161.28 206.82V206.82C161.025 206.886 160.756 206.876 160.506 206.793C160.256 206.709 160.035 206.556 159.87 206.35V206.35C159.814 206.609 159.684 206.846 159.495 207.032C159.307 207.218 159.069 207.346 158.81 207.4C158.55 207.448 158.283 207.421 158.038 207.322C157.793 207.223 157.582 207.056 157.43 206.84V206.84C157.364 207.097 157.223 207.33 157.026 207.508C156.828 207.685 156.583 207.801 156.32 207.84V207.84C156.058 207.878 155.791 207.838 155.551 207.726C155.311 207.614 155.109 207.435 154.97 207.21V207.21C154.884 207.46 154.728 207.68 154.521 207.843C154.313 208.006 154.063 208.106 153.8 208.13H153.69C153.35 208.118 153.027 207.981 152.783 207.744C152.539 207.508 152.392 207.189 152.37 206.85Z" fill="white"/>
<path d="M151.27 208.24C151.18 208.25 151.09 208.25 151 208.24L150.75 208.16C150.667 208.126 150.587 208.086 150.51 208.04L150.31 207.87C150.243 207.809 150.185 207.738 150.14 207.66C150.091 207.587 150.047 207.51 150.01 207.43C149.977 207.346 149.954 207.259 149.94 207.17C149.93 207.084 149.93 206.996 149.94 206.91C149.93 206.82 149.93 206.73 149.94 206.64C149.954 206.554 149.977 206.471 150.01 206.39C150.01 206.31 150.09 206.23 150.14 206.15C150.188 206.077 150.245 206.009 150.31 205.95L150.51 205.78C150.585 205.73 150.665 205.69 150.75 205.66C150.829 205.622 150.914 205.596 151 205.58C151.218 205.535 151.444 205.546 151.657 205.611C151.87 205.675 152.063 205.792 152.22 205.95C152.285 206.009 152.342 206.077 152.39 206.15C152.44 206.23 152.48 206.31 152.52 206.39C152.551 206.472 152.578 206.555 152.6 206.64C152.605 206.73 152.605 206.82 152.6 206.91C152.605 206.997 152.605 207.083 152.6 207.17C152.578 207.258 152.551 207.345 152.52 207.43C152.483 207.51 152.439 207.587 152.39 207.66C152.342 207.737 152.285 207.807 152.22 207.87C151.963 208.111 151.622 208.243 151.27 208.24V208.24Z" fill="white"/>
<path d="M204.2 221.22L200.02 220.94C198.979 220.867 197.944 221.145 197.08 221.73L189.41 226.88L189.35 230.13C191.81 232.99 197.25 230.43 197.25 230.43L202.3 230.26C202.702 230.25 203.092 230.118 203.419 229.883C203.745 229.647 203.993 229.319 204.13 228.94L205.96 223.94C206.074 223.645 206.117 223.328 206.085 223.013C206.052 222.699 205.946 222.396 205.774 222.131C205.603 221.865 205.37 221.644 205.097 221.486C204.823 221.328 204.516 221.237 204.2 221.22Z" fill="#7F3E3B"/>
<path d="M117.59 363.41H118.72C118.954 363.387 119.173 363.282 119.338 363.114C119.502 362.946 119.602 362.725 119.62 362.49L126.62 314.05H121.33L116.72 362.17C116.693 362.309 116.694 362.452 116.723 362.59C116.753 362.729 116.81 362.86 116.891 362.975C116.972 363.091 117.076 363.189 117.196 363.264C117.316 363.339 117.45 363.388 117.59 363.41Z" fill="#1876F2"/>
<path opacity="0.3" d="M117.59 363.41H118.72C118.954 363.387 119.173 363.282 119.338 363.114C119.502 362.946 119.602 362.725 119.62 362.49L126.62 314.05H121.33L116.72 362.17C116.693 362.309 116.694 362.452 116.723 362.59C116.753 362.729 116.81 362.86 116.891 362.975C116.972 363.091 117.076 363.189 117.196 363.264C117.316 363.339 117.45 363.388 117.59 363.41Z" fill="black"/>
<path d="M103.09 363.41H104.22C104.454 363.387 104.673 363.282 104.838 363.114C105.002 362.946 105.102 362.725 105.12 362.49L112.12 314.05H106.83L102.22 362.17C102.193 362.309 102.194 362.452 102.223 362.59C102.253 362.729 102.31 362.86 102.391 362.975C102.472 363.091 102.576 363.189 102.696 363.264C102.816 363.339 102.95 363.388 103.09 363.41V363.41Z" fill="#1876F2"/>
<path opacity="0.3" d="M103.09 363.41H104.22C104.454 363.387 104.673 363.282 104.838 363.114C105.002 362.946 105.102 362.725 105.12 362.49L112.12 314.05H106.83L102.22 362.17C102.193 362.309 102.194 362.452 102.223 362.59C102.253 362.729 102.31 362.86 102.391 362.975C102.472 363.091 102.576 363.189 102.696 363.264C102.816 363.339 102.95 363.388 103.09 363.41V363.41Z" fill="black"/>
<path d="M183.89 363.41H182.75C182.517 363.385 182.301 363.279 182.139 363.111C181.976 362.943 181.877 362.723 181.86 362.49L174.86 314.05H180.14L184.75 362.17C184.777 362.308 184.777 362.45 184.748 362.588C184.719 362.726 184.663 362.857 184.583 362.972C184.503 363.088 184.4 363.186 184.281 363.262C184.162 363.337 184.029 363.387 183.89 363.41V363.41Z" fill="#1876F2"/>
<path opacity="0.3" d="M183.89 363.41H182.75C182.517 363.385 182.301 363.279 182.139 363.111C181.976 362.943 181.877 362.723 181.86 362.49L174.86 314.05H180.14L184.75 362.17C184.777 362.308 184.777 362.45 184.748 362.588C184.719 362.726 184.663 362.857 184.583 362.972C184.503 363.088 184.4 363.186 184.281 363.262C184.162 363.337 184.029 363.387 183.89 363.41V363.41Z" fill="black"/>
<path d="M198.39 363.41H197.25C197.017 363.385 196.801 363.279 196.639 363.111C196.476 362.943 196.377 362.723 196.36 362.49L189.36 314.05H194.64L199.25 362.17C199.277 362.308 199.277 362.45 199.248 362.588C199.219 362.726 199.163 362.857 199.083 362.972C199.003 363.088 198.9 363.186 198.781 363.262C198.662 363.337 198.529 363.387 198.39 363.41V363.41Z" fill="#1876F2"/>
<path opacity="0.3" d="M198.39 363.41H197.25C197.017 363.385 196.801 363.279 196.639 363.111C196.476 362.943 196.377 362.723 196.36 362.49L189.36 314.05H194.64L199.25 362.17C199.277 362.308 199.277 362.45 199.248 362.588C199.219 362.726 199.163 362.857 199.083 362.972C199.003 363.088 198.9 363.186 198.781 363.262C198.662 363.337 198.529 363.387 198.39 363.41V363.41Z" fill="black"/>
<path d="M217.18 256.63H181.58C175.26 234.69 152.58 217.39 129.26 217.39H117.7C93.34 217.39 77.62 236.39 82.58 259.73C83.5191 264.031 85.0433 268.183 87.11 272.07L92.73 306.07C93.45 310.46 96.96 314.02 100.55 314.02H207.71C211.3 314.02 214.81 310.46 215.53 306.07L222.38 264.55C223.11 260.19 220.78 256.63 217.18 256.63Z" fill="#1876F2"/>
<path opacity="0.5" d="M217.18 256.63H181.58C175.26 234.69 152.58 217.39 129.26 217.39H117.7C93.34 217.39 77.62 236.39 82.58 259.73C83.5191 264.031 85.0433 268.183 87.11 272.07L92.73 306.07C93.45 310.46 96.96 314.02 100.55 314.02H207.71C211.3 314.02 214.81 310.46 215.53 306.07L222.38 264.55C223.11 260.19 220.78 256.63 217.18 256.63Z" fill="white"/>
<path d="M212.54 97.15H204.37V98.15H212.54V97.15Z" fill="#1876F2"/>
<path d="M174.32 108.93H173.32V104C173.323 102.18 174.048 100.435 175.336 99.1486C176.624 97.8624 178.37 97.14 180.19 97.14H198.42V98.14H180.19C178.635 98.14 177.143 98.7571 176.043 99.8557C174.942 100.954 174.323 102.445 174.32 104V108.93Z" fill="#1876F2"/>
<path d="M180.19 100.65H271.36C272.251 100.65 273.106 101.004 273.736 101.634C274.366 102.264 274.72 103.119 274.72 104.01V139.76C274.72 140.654 274.365 141.511 273.733 142.143C273.101 142.775 272.244 143.13 271.35 143.13H180.19C179.296 143.13 178.439 142.775 177.807 142.143C177.175 141.511 176.82 140.654 176.82 139.76V104C176.821 103.559 176.91 103.122 177.08 102.715C177.25 102.308 177.498 101.938 177.811 101.627C178.124 101.316 178.495 101.07 178.903 100.902C179.312 100.734 179.749 100.649 180.19 100.65V100.65Z" fill="#1876F2"/>
<path d="M267.05 124.15H184.5C183.901 124.15 183.326 123.912 182.902 123.488C182.478 123.064 182.24 122.489 182.24 121.89V121.89C182.24 121.291 182.478 120.716 182.902 120.292C183.326 119.868 183.901 119.63 184.5 119.63H267.05C267.649 119.63 268.224 119.868 268.648 120.292C269.072 120.716 269.31 121.291 269.31 121.89V121.89C269.31 122.489 269.072 123.064 268.648 123.488C268.224 123.912 267.649 124.15 267.05 124.15V124.15Z" fill="white"/>
<path d="M249.38 133.54H184.5C183.901 133.54 183.326 133.302 182.902 132.878C182.478 132.454 182.24 131.879 182.24 131.28C182.237 130.982 182.294 130.686 182.406 130.409C182.519 130.132 182.685 129.881 182.895 129.669C183.105 129.457 183.355 129.289 183.63 129.174C183.906 129.059 184.202 129 184.5 129H249.38C249.979 129 250.554 129.238 250.978 129.662C251.402 130.086 251.64 130.661 251.64 131.26V131.26C251.643 131.558 251.586 131.855 251.474 132.131C251.361 132.408 251.195 132.659 250.985 132.871C250.775 133.083 250.525 133.251 250.25 133.366C249.974 133.481 249.678 133.54 249.38 133.54V133.54Z" fill="white"/>
<path d="M212.34 114.76H184.5C183.901 114.76 183.326 114.522 182.902 114.098C182.478 113.674 182.24 113.099 182.24 112.5V112.5C182.24 111.901 182.478 111.326 182.902 110.902C183.326 110.478 183.901 110.24 184.5 110.24H212.34C212.939 110.24 213.514 110.478 213.938 110.902C214.362 111.326 214.6 111.901 214.6 112.5V112.5C214.6 113.099 214.362 113.674 213.938 114.098C213.514 114.522 212.939 114.76 212.34 114.76V114.76Z" fill="white"/>
<path d="M249.24 114.76H221.4C220.801 114.76 220.226 114.522 219.802 114.098C219.378 113.674 219.14 113.099 219.14 112.5V112.5C219.14 111.901 219.378 111.326 219.802 110.902C220.226 110.478 220.801 110.24 221.4 110.24H249.24C249.839 110.24 250.414 110.478 250.838 110.902C251.262 111.326 251.5 111.901 251.5 112.5V112.5C251.5 113.099 251.262 113.674 250.838 114.098C250.414 114.522 249.839 114.76 249.24 114.76V114.76Z" fill="white"/>
<path d="M182.24 140.42V151.25C182.24 151.714 182.369 152.169 182.613 152.564C182.857 152.959 183.207 153.278 183.622 153.486C184.037 153.694 184.502 153.782 184.965 153.74C185.427 153.698 185.869 153.529 186.24 153.25L202.84 140.41L182.24 140.42Z" fill="#1876F2"/>
<path d="M322.81 47H231.64C231.197 47 230.759 47.0872 230.35 47.2565C229.941 47.4259 229.57 47.6741 229.257 47.9871C228.944 48.3 228.696 48.6715 228.527 49.0804C228.357 49.4892 228.27 49.9274 228.27 50.37V86.12C228.27 87.0138 228.625 87.8709 229.257 88.5029C229.889 89.1349 230.746 89.49 231.64 89.49H303.64L316.7 99.59C317.071 99.8686 317.513 100.038 317.975 100.08C318.438 100.122 318.903 100.034 319.318 99.8261C319.733 99.6184 320.083 99.2993 320.327 98.9043C320.571 98.5094 320.7 98.0543 320.7 97.59V89.47H322.75C323.644 89.47 324.501 89.115 325.133 88.483C325.765 87.851 326.12 86.9938 326.12 86.1V50.37C326.12 49.4865 325.773 48.6383 325.154 48.008C324.535 47.3777 323.693 47.0157 322.81 47V47Z" fill="white"/>
<path d="M318.25 100.62C317.584 100.616 316.939 100.395 316.41 99.99L303.49 89.99H231.64C230.614 89.9874 229.632 89.5788 228.906 88.8536C228.181 88.1284 227.773 87.1456 227.77 86.12V50.37C227.773 49.3444 228.181 48.3616 228.906 47.6364C229.632 46.9112 230.614 46.5026 231.64 46.5H322.81C323.836 46.5026 324.818 46.9112 325.544 47.6364C326.269 48.3616 326.677 49.3444 326.68 50.37V86.12C326.677 87.1456 326.269 88.1284 325.544 88.8536C324.818 89.5788 323.836 89.9874 322.81 89.99H321.26V97.61C321.26 98.4057 320.944 99.1687 320.381 99.7313C319.819 100.294 319.056 100.61 318.26 100.61L318.25 100.62ZM231.64 47.5C230.88 47.5026 230.151 47.8059 229.614 48.3435C229.076 48.8812 228.773 49.6096 228.77 50.37V86.12C228.773 86.8804 229.076 87.6088 229.614 88.1465C230.151 88.6841 230.88 88.9874 231.64 88.99H303.84L317 99.19C317.296 99.4235 317.651 99.5689 318.025 99.6093C318.4 99.6497 318.778 99.5835 319.117 99.4185C319.455 99.2534 319.74 98.9961 319.939 98.6761C320.138 98.3562 320.242 97.9866 320.24 97.61V89H322.79C323.55 88.9974 324.279 88.6941 324.816 88.1565C325.354 87.6188 325.657 86.8904 325.66 86.13V50.37C325.657 49.6096 325.354 48.8812 324.816 48.3435C324.279 47.8059 323.55 47.5026 322.79 47.5H231.64Z" fill="#1876F2"/>
<path d="M275.28 70.51H318.5C318.797 70.51 319.091 70.4515 319.365 70.338C319.639 70.2244 319.888 70.0579 320.098 69.8481C320.308 69.6382 320.474 69.3891 320.588 69.1149C320.702 68.8407 320.76 68.5468 320.76 68.25V68.25C320.755 67.6532 320.515 67.0824 320.092 66.6613C319.669 66.2402 319.097 66.0026 318.5 66H275.28C274.68 66.0026 274.105 66.243 273.681 66.6684C273.258 67.0938 273.02 67.6697 273.02 68.27C273.025 68.8659 273.266 69.4356 273.689 69.8551C274.112 70.2747 274.684 70.51 275.28 70.51V70.51Z" fill="#1876F2"/>
<path d="M245.1 70.51H266.5C266.797 70.51 267.091 70.4515 267.365 70.338C267.639 70.2244 267.888 70.0579 268.098 69.8481C268.308 69.6382 268.474 69.3891 268.588 69.1149C268.702 68.8407 268.76 68.5468 268.76 68.25V68.25C268.755 67.6532 268.515 67.0824 268.092 66.6613C267.669 66.2402 267.097 66.0026 266.5 66H245.1C244.5 66.0026 243.925 66.243 243.501 66.6684C243.078 67.0938 242.84 67.6697 242.84 68.27V68.27C242.845 68.8659 243.086 69.4356 243.509 69.8551C243.932 70.2747 244.504 70.51 245.1 70.51V70.51Z" fill="#1876F2"/>
<path d="M253.61 79.9L318.5 79.9C319.748 79.9 320.76 78.8882 320.76 77.64C320.76 76.3918 319.748 75.38 318.5 75.38L253.61 75.38C252.362 75.38 251.35 76.3918 251.35 77.64C251.35 78.8882 252.362 79.9 253.61 79.9Z" fill="#1876F2"/>
<path d="M236 61.12H318.5C319.099 61.12 319.674 60.8819 320.098 60.4581C320.522 60.0342 320.76 59.4594 320.76 58.86V58.86C320.76 58.2597 320.522 57.6838 320.099 57.2584C319.675 56.833 319.1 56.5926 318.5 56.59H236C235.4 56.5926 234.825 56.833 234.401 57.2584C233.978 57.6838 233.74 58.2597 233.74 58.86C233.74 59.4594 233.978 60.0342 234.402 60.4581C234.826 60.8819 235.401 61.12 236 61.12V61.12Z" fill="#1876F2"/>
</svg>
