<svg xmlns="http://www.w3.org/2000/svg" xmlns:xlink="http://www.w3.org/1999/xlink" viewBox="0 0 500 500"><defs><clipPath id="freepik--clip-path--inject-32"><path d="M226.16,327.94c.21-.12.45-.29.71-.47l0,0,0,0a29.25,29.25,0,0,0,5.88-5.25c.89-1,1.68-1.8,2.58-2.67l.14-.14.26-.25.12-.12c.45-.42.89-.81,1.33-1.19l8.29,4.95h0a1.63,1.63,0,0,1,.44.4h0a1.85,1.85,0,0,1,.19.27l0,.06a2.44,2.44,0,0,1,.14.28l0,.09.12.31s0,.08,0,.12a3.38,3.38,0,0,1,.11.34c0,.05,0,.1,0,.15s.07.27.11.42l0,.13c0,.18.07.37.11.58v0c0,.23.07.47.11.72v.06l.09.72c0,.08,0,.16,0,.24l.06.62c0,.11,0,.22,0,.32s0,.41.05.63,0,.25,0,.38l0,.65c0,.14,0,.29,0,.44s0,.47,0,.71,0,.29,0,.44,0,.57,0,.86v.4c0,.44,0,.88,0,1.35V357.4l82-47.36V297.11a1.85,1.85,0,0,0,0-.23V200.62h0l-17.2,9.93-.32.19-.2.12h0l0,0-3.39,2.1,0,0,0,0a42.77,42.77,0,0,0-3.91,2.92l-.08.07-.21.17c-.31.26-.6.53-.89.8l-.08.08-.37.36c-.27.26-.53.52-.79.79l-.49.53c-.24.27-.48.54-.71.82s-.3.37-.47.6-.45.58-.66.87l-.36.53-.08.14-.1.14c-.17.26-.34.52-.49.78s-.23.39-.33.6l-.09.15c-.3.56-.6,1.15-.86,1.75l-.07.15c-.11.25-.23.5-.33.76s-.2.53-.29.8l-.07.2c-.11.31-.22.61-.31.93s-.19.65-.28,1-.17.68-.25,1-.14.66-.2,1-.13.72-.18,1.09v.07c0,.3-.09.6-.13.91s-.08.8-.12,1.23l0,.24c0,.23,0,.46-.05.69,0,.49,0,1,0,1.72v.1c0,.13,0,.25,0,.38a29.57,29.57,0,0,0,1.8,10.81,21.94,21.94,0,0,1,1.38,7v.11c0,.33.05.64.05.92a15.39,15.39,0,0,1-1.84,7,12.31,12.31,0,0,1-4.43,5h0a7.17,7.17,0,0,1-.94.44l-.16.06a4.26,4.26,0,0,1-.88.2l-.16,0a4,4,0,0,1-.85,0l-.06,0a2.91,2.91,0,0,1-.82-.26h0l0,0h0l-.08-.05,0,0L279,263.48c0-.26,0-.51.07-.77s.07-.6.11-.9c.08-.62.16-1.22.26-1.8s.18-1.06.28-1.57c.06-.27.11-.53.16-.78.24-1.11.49-2.22.78-3.41a36.08,36.08,0,0,0,1.36-9.38c0-3-.26-4.35-1.07-4.83l-9.86-5.69L254.35,244l-6.89-4v8l-6,3.49h0l-1.92,1.1,8,4.6h0v11.88h0v11.06c0,6.44-.49,10.74-1.49,13.14-.7,1.65-1.77,2.69-4.24,4.12a12.85,12.85,0,0,1-6.45,1.91c-.7,0-1.4.13-2.07.22l-.82.14c-.25.05-.51.1-.78.17a15.22,15.22,0,0,0-1.48.43l-.1,0-.3.1a21.08,21.08,0,0,0-2.21,1l-.27.13-.06,0-.12,0a9.47,9.47,0,0,0-.91.45,23.41,23.41,0,0,0-7.35,7.26c-.48.7-.93,1.43-1.36,2.18l-.17.33c-.37.66-.72,1.33-1,2l-.07.16a36.55,36.55,0,0,0-1.82,4.75h0a29.53,29.53,0,0,0-1,4.48l8.76,5.06A4,4,0,0,0,226.16,327.94Z" style="fill:none"></path></clipPath><clipPath id="freepik--clip-path-2--inject-32"><path d="M247.47,248V225l.23-7v-.14c0-.17,0-.33,0-.48l0-.23c0-.45.08-.88.13-1.3a4.48,4.48,0,0,1,.08-.64l0-.2c0-.41.1-.82.15-1.21s.08-.54.13-.79c.08-.44.14-.87.23-1.29l0-.14c0-.17.07-.35.11-.52.12-.58.27-1.14.41-1.7,0,0,0-.11.05-.2.17-.63.39-1.28.61-1.92l.09-.27c.2-.54.43-1.07.64-1.59,0-.1.1-.22.16-.33l0-.08c.23-.48.46-1,.72-1.44l.2-.34a16,16,0,0,1,1-1.57v0a22.47,22.47,0,0,1,2.63-3.17h0l.08-.08c.41-.4.88-.83,1.38-1.24l.1-.1a25.66,25.66,0,0,1,3.36-2.31,21.32,21.32,0,0,1,4-1.85,17.53,17.53,0,0,1,2.14-.56,24.73,24.73,0,0,1,2.74-.31,13.19,13.19,0,0,0,5.8-1.51l.05,0,0,0a7.47,7.47,0,0,0,.79-.38,12.28,12.28,0,0,0,4.42-5,15.69,15.69,0,0,0,.79-1.73,14.26,14.26,0,0,0,1.05-5.23c0-.3,0-.59,0-.87a1.37,1.37,0,0,0,0-.23,3.54,3.54,0,0,0-.07-.58c0-.09,0-.15,0-.23s-.08-.36-.12-.51-.05-.14-.07-.2-.11-.33-.18-.49l-.07-.14a2.82,2.82,0,0,0-.23-.46.26.26,0,0,0-.07-.1c-.09-.15-.19-.29-.3-.44s0,0-.05-.06l-.38-.38,0,0a2.91,2.91,0,0,0-.46-.32v0l-9.09-5.24a55.36,55.36,0,0,0-4.13,4.12,26.2,26.2,0,0,1-6.47,5.56c-1.57.9-2.86,1.65-3.79,1.11l-8.79-5.08c-.06-2-.06-4.17,0-6.47V147.77l-21.28-12.28L302,91.65l27.59,15.92-.05,102.25-17.19,9.92c-10.47,6-10.47,8.77-10.47,13.7a20.94,20.94,0,0,0,1.36,7.82,29.89,29.89,0,0,1,1.82,9.4c0,.49.06,1.08.07,1.67a33,33,0,0,1-4.46,15.72L283.25,278.1a8,8,0,0,1-1.46-1.17c-1.94-2-3-5.36-3-9.43,0-.55,0-1.13.08-1.77,0,0,0,0,0-.06,0-1,.09-1.93.21-3,0-.29.07-.6.11-.89.07-.63.16-1.23.26-1.8s.18-1.06.28-1.57c.06-.27.11-.53.16-.78.23-1.11.49-2.22.79-3.41a36.52,36.52,0,0,0,1.35-9.38c0-3-.26-4.35-1.08-4.83l-9.85-5.69L254.35,244Z" style="fill:none"></path></clipPath><clipPath id="freepik--clip-path-3--inject-32"><path d="M172.3,291.39,151,279.11l.08-87.22a24,24,0,0,1,2.43-10h0c1.81-3.82,4.47-7.11,7.44-8.83l65.22-37.56,21.28,12.28v19.17l0,6.47,8.78,5.07c.95.55,2.22-.19,3.8-1.1a26.2,26.2,0,0,0,6.47-5.56,55.36,55.36,0,0,1,4.13-4.12l9.09,5.24v0a1.13,1.13,0,0,1,.2.13.08.08,0,0,1,.07,0,1,1,0,0,1,.22.17,3.66,3.66,0,0,1,.8,1,1.32,1.32,0,0,1,.18.33,1.36,1.36,0,0,1,.12.27,5.92,5.92,0,0,1,.38,1.23,1.18,1.18,0,0,1,0,.2c0,.25.08.53.11.81s0,.57,0,.87a7.77,7.77,0,0,1,0,.84c0,.3-.05.59-.09.87s-.09.58-.14.87-.09.44-.15.66a4.49,4.49,0,0,1-.13.47,15.54,15.54,0,0,1-1.3,3.25,12.28,12.28,0,0,1-4.42,5,7.47,7.47,0,0,1-.79.38l0,0-.05,0a13.19,13.19,0,0,1-5.8,1.51c-.64,0-1.29.1-2,.2l-.73.11a17.65,17.65,0,0,0-5,1.81c-.19.09-.37.18-.54.28l-.57.32a25.66,25.66,0,0,0-3.36,2.31l-.1.1c-.5.41-1,.84-1.38,1.24l-.08.08h0a22.47,22.47,0,0,0-2.63,3.17v0a16,16,0,0,0-1,1.57l-.2.34c-.26.48-.49,1-.72,1.44l0,.08c-.06.11-.11.23-.16.33-.21.52-.44,1.05-.64,1.59l-.09.27c-.22.64-.44,1.29-.61,1.92,0,.09-.05.17-.05.2-.14.56-.29,1.12-.41,1.7,0,.17-.07.35-.11.52l0,.14c-.09.42-.15.85-.23,1.29,0,.25-.09.52-.13.79s-.11.8-.15,1.21l0,.2a4.48,4.48,0,0,0-.08.64c0,.42-.09.85-.13,1.3l0,.23c0,.15,0,.31,0,.48v.14l-.23,7v23l-6,3.48-1.91,1.11-3.77,2.15-5.49,3.18c-3.82,2.21-6.46,3.33-8.1,3.46a3.09,3.09,0,0,1-.76,0,1.9,1.9,0,0,1-.49-.18v0h0l-7.83-4.58h0a.38.38,0,0,1,0-.1c.09-1,.21-2,.35-2.9.09-.58.19-1.14.3-1.66.29-1.64.66-3.11,1-4.51a38.43,38.43,0,0,0,1.37-8.53v-.06l0-.08c0-.47,0-.78.05-1.07,0-2.23-.66-3.95-1.84-4.84a1.88,1.88,0,0,0-.18-.12l-.16-.09h0l-8.75-5.05a32.15,32.15,0,0,0-5.78,9.1c-.19.46-.38.92-.55,1.36s-.35.93-.5,1.4l-.07.2c-.16.47-.3.94-.44,1.41s-.26.95-.37,1.42-.15.65-.22,1-.13.65-.17,1a18.81,18.81,0,0,0-.26,2c-.05.36-.08.73-.1,1.09s-.05.93-.05,1.38,0,.6,0,.89,0,.55.06.8c0,.43,0,.83.07,1.22a24.3,24.3,0,0,0,.31,2.7c0,.36.11.71.18,1a35.5,35.5,0,0,0,1.24,4.42,21.37,21.37,0,0,1,1.23,5l0,.19v.15l0,.21c.06.74.09,1.47.09,2.23,0,4.93,0,7.65-10.48,13.7Z" style="fill:none"></path></clipPath></defs><g id="freepik--Floor--inject-32"><ellipse id="freepik--floor--inject-32" cx="252.9" cy="334.64" rx="223.66" ry="121.59" style="fill:#f5f5f5"></ellipse></g><g id="freepik--Shadows--inject-32"><ellipse id="freepik--Shadow--inject-32" cx="366.05" cy="293.07" rx="46.64" ry="26.93" style="fill:#e0e0e0"></ellipse><ellipse id="freepik--shadow--inject-32" cx="113.75" cy="361.36" rx="46.64" ry="26.93" style="fill:#e0e0e0"></ellipse></g><g id="freepik--Plants--inject-32"><g id="freepik--plants--inject-32"><path d="M436.14,283.65l-6.74-3.85s-3.23-17.81-.82-33.11c3.4-21.52,18.05-28.95,23.38-26.81s6.57,8.52-3,21C443.25,248.17,436,263.67,436.14,283.65Z" style="fill:#FFD700"></path><g style="opacity:0.1"><path d="M436.14,283.65l-6.74-3.85s-3.23-17.81-.82-33.11c3.4-21.52,18.05-28.95,23.38-26.81s6.57,8.52-3,21C443.25,248.17,436,263.67,436.14,283.65Z"></path></g><path d="M432.93,274.89H433a.48.48,0,0,0,.43-.53c-2.2-20.22,6.54-42,15.9-50.67a.48.48,0,0,0-.66-.71c-9.52,8.79-18.43,31-16.2,51.49A.49.49,0,0,0,432.93,274.89Z" style="fill:#fff"></path><path d="M454.83,294.44c1.06.61,3.25-.72,4.09-1.29a10.1,10.1,0,0,0,3.38-3.87,9.55,9.55,0,0,0,.85-5.72,24.41,24.41,0,0,0-.72-3c-.29-1-.57-2-.85-2.95a7.45,7.45,0,0,1-.43-3c.25-2,2-3.43,3.67-4.65,1.8-1.35,3.68-3.13,3.67-5.56a8.62,8.62,0,0,0-2.14-5.09c-1.16-1.47-2.54-2.77-3.59-4.32a5.9,5.9,0,0,1-1.22-3.78,6.06,6.06,0,0,1,.82-2.35,33.45,33.45,0,0,0,2.58-4.73c.59-1.7.51-3.82-.82-5a5.55,5.55,0,0,0-4.18-1,9.64,9.64,0,0,0-3.89,1.36c-3.86,2.15-6.06,6.72-10.15,8.37A43.57,43.57,0,0,1,441,249a6.07,6.07,0,0,0-4.09,2.8c-1.5,3,1.29,6.7.23,9.88-.94,2.82-3.68,3.9-5.21,6.44a6,6,0,0,0-.72,3.69,17.67,17.67,0,0,0,1.55,6.24,44.62,44.62,0,0,0,3.43,5.62C436.2,283.71,454.66,294.35,454.83,294.44Z" style="fill:#FFD700"></path><path d="M443.89,288.62h0a.48.48,0,0,0,.47-.5c-.79-19.07,8.19-40.12,14.73-46.24a.48.48,0,1,0-.66-.7c-6.67,6.24-15.83,27.64-15,47A.48.48,0,0,0,443.89,288.62Z" style="fill:#fff"></path><path d="M446.75,266.09l.14,0a63.85,63.85,0,0,1,13.84-2.23.49.49,0,0,0,.46-.5.46.46,0,0,0-.5-.46,65.25,65.25,0,0,0-14.08,2.27.48.48,0,0,0-.32.6A.47.47,0,0,0,446.75,266.09Z" style="fill:#fff"></path></g><g id="freepik--plants--inject-32"><path d="M48.43,305.31l6.7-3.87s3.25-17.81.83-33.11c-3.39-21.52-18-28.94-23.37-26.81s-6.57,8.52,3,21C41.3,269.81,48.61,285.34,48.43,305.31Z" style="fill:#FFD700"></path><g style="opacity:0.1"><path d="M48.43,305.31l6.7-3.87s3.25-17.81.83-33.11c-3.39-21.52-18-28.94-23.37-26.81s-6.57,8.52,3,21C41.3,269.81,48.61,285.34,48.43,305.31Z"></path></g><path d="M52,304.28h0a.5.5,0,0,1-.47-.52c1.58-30-2.64-47.07-14.12-57.2a.51.51,0,0,1,0-.71.51.51,0,0,1,.71,0c11.73,10.35,16.06,27.7,14.46,58A.5.5,0,0,1,52,304.28Z" style="fill:#fff"></path><path d="M50.46,304.13c.14-6.44-3.61-27.77-16.23-35.53s-18.75,1.91-13.64,7.77c3.75,4.29,10.73,7.39,17.3,16.26C42.4,298.73,45,307.3,45,307.3Z" style="fill:#FFD700"></path><path d="M48.2,306.63a.5.5,0,0,1-.5-.47c-1.21-16.26-10.44-30.85-22.45-35.47a.5.5,0,0,1,.36-.94C38,274.52,47.46,289.46,48.7,306.09a.5.5,0,0,1-.47.54Z" style="fill:#fff"></path></g></g><g id="freepik--Characters--inject-32"><g id="freepik--character-2--inject-32"><g id="freepik--character-boy--inject-32"><path d="M302.48,114.45c1.52,1.25,3.26,1.9,5.26,3.84a11.78,11.78,0,0,0,4.65,3.23c2.31.92,4.48.65,10.89-.38,7.83-1.25,11.2-2.57,14.58-5.45,3.95-3.37,12.79-13.54,17.06-17.53,4.52-4.22,10.73-2.59,10.73-2.59a64.74,64.74,0,0,1-8.48,17.58c-3.42,4.87-9.81,9.54-12.7,11.94-4.63,3.85-7.09,5.37-17.25,6.14-7.67.58-8.69.76-15,.58-2.27-.07-3.68-.09-7.4-.4a22.69,22.69,0,0,1-4.77-.83,17.52,17.52,0,0,1-5-2,13.5,13.5,0,0,1-4.74-5.32,8.53,8.53,0,0,1-.88-3.83,5.67,5.67,0,0,1,1.38-3.64,1.64,1.64,0,0,1,.64-.47,1.91,1.91,0,0,1,1.39.3c2.4,1.23,4.82,2.93,7.34,3.9,2.12.81,3.74,1.1,3.58.67s-1.44-.82-2.76-2.31-1.65-3.56-.8-4.21S301,113.19,302.48,114.45Z" style="fill:#ffa8a7"></path><path d="M367.47,95.54a11.75,11.75,0,0,0-7.77-.85c-3.95,1.14-7.12,3.72-10.89,7.77s-10.14,10.59-10.14,10.59,3.14,7.93,10.18,10.75l14.76-13.65Z" style="fill:#e0e0e0"></path><g id="freepik--character-boy--inject-32"><rect x="380.21" y="276.74" width="8.95" height="15.32" style="fill:#ffa8a7"></rect><polygon points="364.39 280.6 355.45 280.91 355 264.7 364.39 264.39 364.39 280.6" style="fill:#ffa8a7"></polygon><path d="M393,162.37c0,8.54-1.51,58.24-1.51,58.24.2,2.46,2.57,6.83,2.76,15.69.26,12.84-4.68,48.1-4.68,48.1a11.77,11.77,0,0,1-10,.2s-4.06-47.8-5.67-60.51c-1.4-11.1-3.77-41.24-3.77-41.24l-4.21,36.22A50.89,50.89,0,0,1,367,233.29c-.42,5.88-2.08,42.29-2.08,42.29a12.2,12.2,0,0,1-10.33.79s-6.31-51.91-6.41-57.3c-.12-6.15,2.33-68.94,2.33-68.94Z" style="fill:#37474f"></path><path d="M387.09,99.51A8.21,8.21,0,0,1,391.4,104a21,21,0,0,1,1.31,7.73v17.53l.26,33.11c-12.85,6.77-29.17,7.22-42.88-2.79,0,0,.77-42.61.77-49.58,0-.31,0-.63,0-1,.5-10,10.3-16.79,20-14.31L379,96.83l8.14,2.68Z" style="fill:#f0f0f0"></path><circle cx="364.11" cy="66.9" r="12.3" transform="translate(-5.63 85.45) rotate(-13.28)" style="fill:#FFD700"></circle><circle cx="364.11" cy="66.9" r="12.3" transform="translate(-5.63 85.45) rotate(-13.28)" style="opacity:0.5"></circle><path d="M385.37,75.64s-2,9.37-2.79,10.9a4.25,4.25,0,0,1-2.45,2l.14-6.59Z" style="fill:#FFD700"></path><path d="M385.37,75.64s-2,9.37-2.79,10.9a4.25,4.25,0,0,1-2.45,2l.14-6.59Z" style="opacity:0.5"></path><path d="M382.87,62.23a4.6,4.6,0,0,1,3.82,1.35c1.64,1.67.72,6.92-1.32,12.06l-3.75.44Z" style="fill:#FFD700"></path><path d="M382.87,62.23a4.6,4.6,0,0,1,3.82,1.35c1.64,1.67.72,6.92-1.32,12.06l-3.75.44Z" style="opacity:0.5"></path><path d="M380.49,76.08c.75.45,1.83-1,2.75-2s4-2.3,5.47.89-1.33,7.53-3.72,8.28c-4.11,1.29-4.72-1.35-4.72-1.35L380,97.22h0c-5.11,6.55-19.29,6-13.38-.85V91.86a26.1,26.1,0,0,1-5.54.28c-3-.47-4.93-2.85-5.85-6.12-1.47-5.26-2-9.5-.78-19.84,1.37-11.33,14.55-11.45,21.67-7S380.49,76.08,380.49,76.08Z" style="fill:#ffa8a7"></path><path d="M380.49,77.34c.38,0,1.82-2.38,2.75-3.23,1.3-1.18-.37-11.88-.37-11.88a5.06,5.06,0,0,0-1.25-5.41c-1.78-2-4.75-2.17-9.83-3-2.66-.42-6.7-1.16-9.36-1.66-3.17-.59-5.8-1.21-8,.74a5.61,5.61,0,0,0-1.56,6.3A5.8,5.8,0,0,0,356,62.15s1.38,1.23,6.2,1.82a71.52,71.52,0,0,0,13.34-.26c1.4-.19,1.7,1.17,2.45,4.86C378.67,71.82,379.22,77.32,380.49,77.34Z" style="fill:#FFD700"></path><path d="M380.49,77.34c.38,0,1.82-2.38,2.75-3.23,1.3-1.18-.37-11.88-.37-11.88a5.06,5.06,0,0,0-1.25-5.41c-1.78-2-4.75-2.17-9.83-3-2.66-.42-6.7-1.16-9.36-1.66-3.17-.59-5.8-1.21-8,.74a5.61,5.61,0,0,0-1.56,6.3A5.8,5.8,0,0,0,356,62.15s1.38,1.23,6.2,1.82a71.52,71.52,0,0,0,13.34-.26c1.4-.19,1.7,1.17,2.45,4.86C378.67,71.82,379.22,77.32,380.49,77.34Z" style="opacity:0.5"></path><path d="M382.86,63.06l4.55-2.44A2.51,2.51,0,0,0,384,59.48,2.72,2.72,0,0,0,382.86,63.06Z" style="fill:#FFD700"></path><path d="M382.86,63.06l4.55-2.44A2.51,2.51,0,0,0,384,59.48,2.72,2.72,0,0,0,382.86,63.06Z" style="opacity:0.5"></path><path d="M366.59,91.86s6.75-1.36,9.11-2.62A7.76,7.76,0,0,0,379,86a10.58,10.58,0,0,1-1.85,3.8c-1.73,2.21-10.52,3.83-10.52,3.83Z" style="fill:#f28f8f"></path><path d="M366.92,74.39A1.35,1.35,0,1,0,368.27,73,1.38,1.38,0,0,0,366.92,74.39Z" style="fill:#263238"></path><path d="M368.35,69.28l2.9,1.6a1.74,1.74,0,0,0-.68-2.3A1.61,1.61,0,0,0,368.35,69.28Z" style="fill:#263238"></path><path d="M367.2,83.73l-3.09,1.16a1.62,1.62,0,0,0,2.1,1A1.72,1.72,0,0,0,367.2,83.73Z" style="fill:#f28f8f"></path><path d="M355.25,70.41l2.64-2A1.59,1.59,0,0,0,355.6,68,1.74,1.74,0,0,0,355.25,70.41Z" style="fill:#263238"></path><path d="M356.06,74a1.36,1.36,0,1,0,1.36-1.41A1.38,1.38,0,0,0,356.06,74Z" style="fill:#263238"></path><polygon points="362.95 72.72 362.51 80.86 358.26 79.41 362.95 72.72" style="fill:#f28f8f"></polygon><path d="M380.21,287.64v-1.28c-.86.38-2.85,8-6.4,11.2-2.82,2.58-6.67,5.55-7.65,8.42s5.36,4.63,8,4.17c3.06-.55,8.37-2.7,9.71-4.7s1.95-4.95,3-6.42,3.58-3.1,4.16-4.8c.32-.93-.06-3-.51-4.69s-.86-3.32-1.4-3.18c0,.2,0,1,0,1a7.1,7.1,0,0,1-4.48,1.51C383.37,288.9,380.2,288.64,380.21,287.64Z" style="fill:#263238"></path><path d="M355.36,278.15c-.47,0-.85.67-1.87,1.78a19.55,19.55,0,0,1-5.26,3.79c-3.35,1.67-9.87,4.25-12.82,5.58-1.84.83-1.75,3.06.15,4.32s6.5,2.18,12,.95c3-.68,6.92-3.45,9.4-3.3s7.11.11,8.94-1.15,1.1-3.95.58-6.27c-.56-2.52-1.27-6.46-2.1-6.28v.87c-1.08,1.63-6.63,2.29-9,1.09Z" style="fill:#263238"></path><path d="M370.14,182.85a33.1,33.1,0,0,1-12.46-7.14s2.4,4.5,9.55,8.69l-1,31.63Z" style="fill:#263238"></path></g></g></g><g id="freepik--character-1--inject-32"><path d="M104.73,125.34h3.19a17.91,17.91,0,0,1,17.91,17.91v38a0,0,0,0,1,0,0h-39a0,0,0,0,1,0,0v-38a17.91,17.91,0,0,1,17.91-17.91Z" style="fill:#263238"></path><path d="M103.45,368.07l-2.51-2.23c-2.43-2.22-4.28-6-5.35-8.54a12.2,12.2,0,0,1-.92-4.62v-5H85.91v8.13h0V356l0,0c.42,1.82,4.45,6.67,6.73,9.83,1.54,2.12,4.45,4.81,7.93,5.28C103.9,371.61,105.59,370.57,103.45,368.07Z" style="fill:#ffa8a7"></path><path d="M128.78,354.73a2.1,2.1,0,0,0,.63-.56c.68-.94.14-1.45-.36-2.2a19.35,19.35,0,0,1-1.5-3.27c-.41-1-.94-2.78-.94-2.78s0-1.31,0-1.84v-5h-8.77v8.35l0,0c.45,2,2.23,3.83,3.39,5.38.9,1.2,3.22,1.81,4.62,2.11a5.2,5.2,0,0,0,1.88.13A2.86,2.86,0,0,0,128.78,354.73Z" style="fill:#ffa8a7"></path><path d="M87.65,219.86c-6.8,14.85.25,67.15.25,67.15-.21,2.41-3,7.15-4,17.75-1.21,12.53,1.9,44,1.9,44a9.51,9.51,0,0,0,8.87.35s8.35-47.38,9.92-59.84c1.37-10.87,4-34.77,4-34.77l5.23,34.76A64.68,64.68,0,0,0,111.47,300c-.71,7.32,6.39,41.44,6.39,41.44s3,1.11,8.77.26c0,0,2.51-45.27,3.17-54.1,1.11-14.82-.58-61.12-3.3-69.89Z" style="fill:#37474f"></path><path d="M108.61,254.49l2.2-13.79s9.34-1.94,13.57-5.92c0,0-4.44,5.53-11,7.34l-2.48,10.61,2.22,31.5Z" style="fill:#263238"></path><path d="M94.7,354.5v-1.27c.84.37,2.8,7.83,6.29,11,2.77,2.53,6.56,5.45,7.52,8.27s-5.27,4.55-7.86,4.1c-3-.54-8.22-2.66-9.53-4.62s-1.93-4.86-3-6.3S84.6,362.64,84,361c-.32-.91.06-2.92.5-4.61s.85-3.26,1.38-3.12v1a7,7,0,0,0,4.39,1.49C91.59,355.74,94.71,355.48,94.7,354.5Z" style="fill:#263238"></path><path d="M126.61,345.92c.45,0,1,.7,2,1.79a19.19,19.19,0,0,0,5.17,3.72c3.29,1.65,9.69,4.18,12.59,5.49,1.81.81,1.72,3-.15,4.24s-6.38,2.14-11.8.93c-3-.66-6.8-3.39-9.24-3.24s-7,.11-8.78-1.13-1.08-3.88-.57-6.15c.56-2.48,1.25-6.35,2.07-6.18v.86c1.06,1.6,6.51,2.25,8.83,1.07Z" style="fill:#263238"></path><path d="M114.15,167.88a12.55,12.55,0,0,1,11.16,5c3.51,4.58,12.75,23.34,12.75,23.34s20.29-1.36,21.26-2.53.43-3.55.16-4.86-.71-4.21-1-5c-.51-1.43,1.6-1,2.84.29s1.79,3.93,2.41,4.38,5.33-5,7.61-7.59,3.36-4.44,4.89-3.36c1.11.78.4,2.33-1.24,4.57a30.66,30.66,0,0,0-2.12,3c-.19.41.41.73.65.94.45.4,1.23,1.05,1.29,1.67a5.6,5.6,0,0,0,.06,1c.21.75,1.14,1.1,1.4,1.83.19.53,0,1.12.08,1.67.07.35.27.67.33,1a2.46,2.46,0,0,1-.73,1.92c-1.61,1.91-3.8,2.64-5.91,3.81-1.75,1-3.55,1.39-5.57,2.29s-26.68,7.28-30.37,5.23-17.84-24.27-17.84-24.27C110.74,173.06,114.15,167.88,114.15,167.88Z" style="fill:#ffa8a7"></path><path d="M99.64,168.28h0c-8.71.6-9.32,4.81-11.5,9.41-1.67,3.51-1.12,7.69.15,11.35l5.51,17.45s-2.85,6.88-6.15,13.37c15.24,8.51,34.27,4,38.85-2.17.2-1.32-1-11.61-1.7-18.34,2.68-6.73,3.39-11,2.26-15.45-2.11-8.26-10.27-16.31-13.88-16Z" style="fill:#FFD700"></path><path d="M85.88,133.39l2.64,4.24a2.43,2.43,0,0,1-3.44-.7A2.64,2.64,0,0,1,85.88,133.39Z" style="fill:#263238"></path><path d="M119.43,133.23c2.06,1.21,4.6,6.39,4.35,17.26-.21,9.2-3.2,11.48-4.69,12.13s-4.39.26-7.2-.21v5.53s3.88,4.51,3.64,7-5.61,3.13-9.24.66a23.53,23.53,0,0,1-6-6.25V156s-1.89,2.53-5,.47-3.22-7.16-1.42-9,5.69-1.25,6.41,1.28c0,0,4.48.16,10.45-3.11A16.78,16.78,0,0,0,119.43,133.23Z" style="fill:#ffa8a7"></path><path d="M112.47,148.17a1.16,1.16,0,1,1-1.22-1.14A1.18,1.18,0,0,1,112.47,148.17Z" style="fill:#263238"></path><path d="M113.81,156l2.69.86a1.39,1.39,0,0,1-1.75,1A1.48,1.48,0,0,1,113.81,156Z" style="fill:#f28f8f"></path><path d="M122,144.62,119.62,143a1.37,1.37,0,0,1,1.95-.4A1.49,1.49,0,0,1,122,144.62Z" style="fill:#263238"></path><path d="M121.42,147.34a1.16,1.16,0,0,1-1.09,1.25,1.2,1.2,0,1,1,1.09-1.25Z" style="fill:#263238"></path><polygon points="115.77 146.67 115.95 153.64 119.62 152.51 115.77 146.67" style="fill:#f28f8f"></polygon><path d="M111.89,162.41c-3-.39-9-2.14-10-4.55a6.19,6.19,0,0,0,2.13,3.08c1.82,1.56,7.87,3.31,7.87,3.31Z" style="fill:#f28f8f"></path><path d="M103.54,221.51c-4.15-1-8.36-5.52-6.46-9.95a6.28,6.28,0,0,1,2.65-2.95,2.38,2.38,0,0,1,2.77.3c-2-1.31-5.43-7.68-5.89-10l-2.35-7.84a12.91,12.91,0,0,1,.47-5.34l-6.13-7.08-1.13.78c-1,3.07-.24,6.54.82,9.61l5.51,17.45s-2.85,6.88-6.15,13.37A39.38,39.38,0,0,0,120.21,222,44.5,44.5,0,0,1,103.54,221.51Z" style="opacity:0.1"></path></g><path d="M175.52,395.49,155.7,384.05c-2.06-1.22-3.21-4.28-3.21-8.22l-.08-86.93,20,11.53-.08,87.21C172.3,391.48,173.54,394.22,175.52,395.49Z" style="fill:#FFD700"></path><path d="M175.52,395.49,155.7,384.05c-2.06-1.22-3.21-4.28-3.21-8.22l-.08-86.93,20,11.53-.08,87.21C172.3,391.48,173.54,394.22,175.52,395.49Z" style="opacity:0.2"></path><path d="M175.66,395.57l-.14-.08c-2-1.27-3.22-4-3.22-7.85l.08-87.21-20-11.53,17.27-10.07.16-.09,0,0h0l2.45-1.42h0l2.76-1.92.11-.07.11-.08c.15-.1.27-.21.4-.31l.16-.11.48-.36.46-.36q.19-.18.39-.33l.15-.12.14-.12c.26-.2.51-.42.75-.63l.38-.35.14-.15c.47-.43.94-.9,1.37-1.37l.16-.15q.27-.29.51-.57a2.09,2.09,0,0,0,.23-.29,1.79,1.79,0,0,0,.22-.25l0-.07.06-.09.11-.12.53-.67c.14-.2.29-.41.42-.62l.11-.13,0-.06c.19-.27.36-.54.53-.81s.29-.47.43-.71l.05-.09c.11-.22.23-.42.34-.64l.17-.31c.14-.27.27-.54.39-.82l0,0,.22-.51a3.38,3.38,0,0,0,.22-.52,2.53,2.53,0,0,0,.18-.44c.05-.14.12-.3.17-.44.13-.35.24-.71.36-1.08h0c.09-.29.19-.6.27-.91,0,0,0-.08,0-.13.1-.33.17-.67.24-1l0-.11c0-.26.12-.53.17-.81h0c.07-.38.15-.82.2-1.23l0-.21c0-.09,0-.18,0-.28a.37.37,0,0,0,0-.11,2.74,2.74,0,0,1,0-.28c.05-.49.09-1,.13-1.44l0-.22,0-.55h0q0-1.08.06-2.19V252c0-.21,0-.4,0-.62v-.54c0-.24,0-.5,0-.73a1.15,1.15,0,0,0,0-.19,1.21,1.21,0,0,0,0-.19v-.27c0-.37-.05-.73-.08-1.06h0v-.06c0-.32-.07-.62-.1-.91a28.54,28.54,0,0,0-.83-4c-.23-.8-.48-1.53-.7-2.22a22.72,22.72,0,0,1-1.22-4.85c0-.33-.08-.67-.11-1s0-.77-.07-1.18V234a1.43,1.43,0,0,1,0-.29,3.44,3.44,0,0,1,0-.63c0-4.61,2.8-10,6.27-12a4.38,4.38,0,0,1,1.1-.46,3.52,3.52,0,0,1,.76-.12,3,3,0,0,1,.74,0,2,2,0,0,1,.35.08,4.64,4.64,0,0,1,1,.43L214,232.6h0a3.26,3.26,0,0,1,.34.22c1.18.9,1.84,2.61,1.84,4.83,0,.3,0,.61-.06,1.09v.13a38.42,38.42,0,0,1-1.38,8.53c-.17.71-.34,1.42-.5,2.17-.07.25-.12.51-.17.76-.18.76-.34,1.55-.47,2.4-.05.27-.09.56-.13.84l14-7.93,20,11.53v22.94c0,6.44-.49,10.74-1.49,13.14-.7,1.66-1.77,2.7-4.24,4.12a12.84,12.84,0,0,1-6.44,1.91c-.72,0-1.4.13-2.09.22l-.81.14c-.26.05-.51.1-.78.17-.48.11-1,.27-1.48.43l-.4.15a21.9,21.9,0,0,0-2.21,1,1.3,1.3,0,0,0-.26.14l-.07,0-.12.06c-.27.12-.58.27-.9.45a23.56,23.56,0,0,0-7.37,7.26,33.45,33.45,0,0,0-2.63,4.68,37.11,37.11,0,0,0-1.82,4.75l1.1-1.17a39.94,39.94,0,0,1,3.32-3.32,20.34,20.34,0,0,1,3.15-2.24c1.6-.92,2.88-1.66,3.83-1.07h0l19.82,11.81h0l.23.17a1.22,1.22,0,0,1,.15.17.21.21,0,0,1,.08.1,1.13,1.13,0,0,1,.15.21s0,0,0,.05a2.11,2.11,0,0,1,.16.3c.51,1.08.85,3,1,6.22,0,.35,0,.72,0,1.12,0,1,0,2.14,0,3.39V357.4l-65.3,37.7a8.07,8.07,0,0,1-3.5,1.16,6.62,6.62,0,0,1-1.18,0,1.23,1.23,0,0,1-.38-.08A5,5,0,0,1,175.66,395.57Z" style="fill:#FFD700"></path><path d="M225.75,310.93h0l19.8,11.81h0c-.94-.6-2.23.16-3.83,1.08a19.61,19.61,0,0,0-3.14,2.24,37,37,0,0,0-3.33,3.31,39.15,39.15,0,0,1-7.83,6.94c-.39.28-.85.57-1.28.82-7.25,4.19-13.15-.27-13.15-9.94a29.2,29.2,0,0,1,1.37-8.48c.37-.39.72-.78,1.08-1.15a39.94,39.94,0,0,1,3.32-3.32,20.26,20.26,0,0,1,3.14-2.24C223.51,311.08,224.81,310.34,225.75,310.93Z" style="opacity:0.1"></path><path d="M213.41,253.58l14.07-7.94,20,11.54h0l-17.19,9.92,0,0h0l-5.17,2.7-.06,0h-.05l-.37.16-.19.07-.86.35-.48.17-.13.05c-.28.09-.55.19-.81.26l-.56.15c-.29.08-.56.13-.83.18h-.09l-.37.06a8.93,8.93,0,0,1-1,.08H219a6.43,6.43,0,0,1-1.16-.12l-.2-.05a5.74,5.74,0,0,1-.86-.31.84.84,0,0,1-.23-.12l0,0a6.43,6.43,0,0,1-.72-.48l-.05,0-.17-.15a5.34,5.34,0,0,1-.7-.79l-.1-.12a9,9,0,0,1-1.18-2.71l-.05-.17c-.13-.51-.22-1-.31-1.55l0-.27c-.09-.6-.16-1.24-.2-1.89-.06-.86-.08-1.61-.08-2.36A44.2,44.2,0,0,1,213.41,253.58Z" style="opacity:0.1"></path><path d="M172.38,300.43l-20-11.53,17.27-10.07.15-.09.06,0h0l2.45-1.42h0l2.77-1.92.1-.07.11-.08c.15-.1.27-.21.4-.31l.15-.11.49-.36.46-.36q.19-.18.39-.33l.15-.12.14-.12c.26-.2.51-.42.75-.63l.38-.35.14-.15c.47-.43.94-.9,1.37-1.37l.16-.15q.27-.29.51-.57a2.09,2.09,0,0,0,.23-.29c.08-.08.14-.17.21-.25l.06-.07.07-.08.1-.13c.18-.22.37-.44.53-.67l.43-.61.1-.14,0-.06c.19-.27.36-.54.53-.81s.29-.47.43-.71l0-.1c.12-.21.24-.41.35-.63a3.14,3.14,0,0,0,.18-.31c.12-.28.26-.55.38-.82l0,0,.22-.51c.08-.16.15-.33.23-.51s.12-.29.17-.45.12-.3.17-.44c.13-.36.24-.7.36-1.08h0c.09-.29.19-.6.27-.91,0,0,0-.08,0-.13.08-.32.17-.67.24-1l0-.1c.05-.28.11-.54.16-.82h0c.07-.38.15-.82.2-1.23l0-.21c0-.08,0-.18,0-.28a.37.37,0,0,0,0-.11c0-.09,0-.19,0-.29.06-.5.1-1,.13-1.43l0-.22c0-.19,0-.35,0-.55h0q0-1.08.06-2.19V252c0-.21,0-.4,0-.62v-.54c0-.24,0-.5,0-.74v-.18a1.21,1.21,0,0,0,0-.19v-.27c0-.37-.05-.73-.08-1.06v-.07h0l-.09-.9a28.54,28.54,0,0,0-.83-4c-.22-.81-.47-1.54-.7-2.22a22.72,22.72,0,0,1-1.22-4.85c0-.33-.08-.67-.11-1s0-.76-.06-1.18V234c0-.1,0-.2,0-.3a3.44,3.44,0,0,1,0-.63c0-4.61,2.8-10,6.27-12a4.38,4.38,0,0,1,1.1-.46,3.52,3.52,0,0,1,.76-.12,2.28,2.28,0,0,1,.74,0,2,2,0,0,1,.35.08,4.64,4.64,0,0,1,1,.43L214,232.6a3.18,3.18,0,0,0-1.39-.42,4.34,4.34,0,0,0-1.06.09,5.58,5.58,0,0,0-1.65.66,9.24,9.24,0,0,0-1.69,1.29,14.86,14.86,0,0,0-3.27,4.83c-.18.39-.32.79-.47,1.2A15.88,15.88,0,0,0,204,242a13.33,13.33,0,0,0-.34,2.9c0,.27,0,.58,0,.92v.1a20.7,20.7,0,0,0,.69,4.8c.06.26.14.51.21.76.16.51.32,1,.48,1.5.23.69.48,1.41.71,2.22.08.28.15.56.22.84s.14.59.22.9a28.6,28.6,0,0,1,.49,3.16v.05h0a4.84,4.84,0,0,0,0,.53l0,.54v.14l0,.14c0,.12,0,.24,0,.37a2.29,2.29,0,0,1,0,.37c0,.12,0,.25,0,.37v.55c0,.19,0,.39,0,.61v.09c0,.37,0,.74,0,1.11s0,.73-.05,1.1c0,.18,0,.37,0,.54l0,.22c0,.47-.07.95-.13,1.43,0,.23-.06.45-.09.69l0,.19h0l-.21,1.25-.18.81,0,.1c0,.19-.08.38-.14.58s-.1.38-.15.55,0,.16-.05.24-.15.45-.21.68h0c-.11.36-.23.72-.36,1.07s-.23.6-.34.89-.29.69-.44,1l-.41.84h0c-.08.15-.16.32-.25.47l-.25.47-.06.1a3.35,3.35,0,0,1-.21.36l-.07.12a1.43,1.43,0,0,1-.15.22c-.17.28-.34.55-.52.82l0,.06-.1.14a2.86,2.86,0,0,1-.22.3,3.21,3.21,0,0,1-.21.3l-.19.25a5,5,0,0,1-.34.43l-.1.13-.11.15-.23.27-.07.08c0,.06-.1.13-.16.19l-.26.29c-.07.09-.16.18-.25.28l-.15.15a17.83,17.83,0,0,1-1.38,1.37l-.14.15-.39.35c-.23.22-.48.43-.74.64l-.14.11-.07.07-.07.06-.39.32-1,.72-.15.12-.4.3-.22.15-2.77,1.92-2.45,1.42-.08.06-.16.08Z" style="opacity:0.1"></path><g style="clip-path:url(#freepik--clip-path--inject-32)"><path d="M248.67,300.52l-21.29-12.29.47-.65.05-.06.23-.33c.34-.5.66-1,1-1.53l.09-.16c.31-.55.61-1.15.9-1.78.06-.15.13-.3.19-.46l0-.1c.15-.36.33-.79.5-1.27.08-.21.15-.42.23-.65l0-.13c.12-.36.24-.72.34-1.09s.17-.59.25-.9.16-.67.25-1,.14-.66.2-1,.13-.63.18-.94l0-.15c.06-.3.11-.62.16-.94s.05-.37.08-.55l0-.2c.22-1.6.35-3.28.46-5.1v-.2l.11-4.91V240.78l21.21,12.42h0v23.36l-.11,4.92v.19c-.09,1.82-.23,3.5-.44,5.09l0,.21c0,.19-.05.37-.08.56s-.09.63-.15.93l0,.14c-.05.33-.11.63-.17.95s-.14.65-.22,1-.15.68-.23,1-.17.61-.25.9-.22.73-.35,1.08l0,.15c-.07.21-.15.44-.23.65-.16.46-.35.9-.5,1.27l-.05.09-.18.46c-.29.62-.59,1.22-.9,1.79l-.09.16c-.29.5-.61,1-.95,1.53a2.34,2.34,0,0,1-.24.31l0,.07Z" style="fill:#FFD700"></path><path d="M233.08,341.13l.06-19.28-.3.31c.88-1,1.69-1.81,2.57-2.67l.15-.14.26-.25L236,319a29.78,29.78,0,0,1,5.56-4.22h0l.22-.11.05,0,.15-.09h0c.48-.27,1-.51,1.43-.74.13-.07.27-.12.4-.18l.14-.07c.32-.12.66-.27,1-.38.18-.08.35-.12.51-.18l.08,0c.29-.07.57-.15.83-.2s.4-.08.59-.1a4.72,4.72,0,0,1,.74,0,5.23,5.23,0,0,1,.56,0,4,4,0,0,1,.65.11H249l.41.1a3.36,3.36,0,0,1,.6.28,3.89,3.89,0,0,1,.61.37,5.14,5.14,0,0,1,.65.55,4.26,4.26,0,0,1,.32.38l.07.1.06.07a4.85,4.85,0,0,1,.29.41,4.93,4.93,0,0,1,.34.6c.1.19.19.36.27.55s.2.48.3.74.13.38.19.58.17.56.25.86l.12.5,0,.08c.07.33.15.67.21,1,0,.09,0,.19,0,.29l0,.12c.22,1.41.38,3,.49,4.87v.08l.11,4.46v23.68Z" style="fill:#FFD700"></path><path d="M221.82,328.12,200.89,316c-1.39-.74-2.2-2.68-2.2-5.25a16,16,0,0,1,2.76-8.53l.4-.56c-.1.16-.22.32-.32.47l21.28,12.29a1.7,1.7,0,0,0-.15.22,15.85,15.85,0,0,0-2.76,8.52C219.9,325.57,220.64,327.29,221.82,328.12Z" style="fill:#FFD700"></path><path d="M248.67,300.52l-21.29-12.29.47-.65.05-.06.23-.33c.34-.5.66-1,1-1.53l.09-.16c.31-.55.61-1.15.9-1.78.06-.15.13-.3.19-.46l0-.1c.15-.36.33-.79.5-1.27.08-.21.15-.42.23-.65l0-.13c.12-.36.24-.72.34-1.09s.17-.59.25-.9.16-.67.25-1,.14-.66.2-1,.13-.63.18-.94l0-.15c.06-.3.11-.62.16-.94s.05-.37.08-.55l0-.2c.22-1.6.35-3.28.46-5.1v-.2l.11-4.91V240.78l21.21,12.42h0v23.36l-.11,4.92v.19c-.09,1.82-.23,3.5-.44,5.09l0,.21c0,.19-.05.37-.08.56s-.09.63-.15.93l0,.14c-.05.33-.11.63-.17.95s-.14.65-.22,1-.15.68-.23,1-.17.61-.25.9-.22.73-.35,1.08l0,.15c-.07.21-.15.44-.23.65-.16.46-.35.9-.5,1.27l-.05.09-.18.46c-.29.62-.59,1.22-.9,1.79l-.09.16c-.29.5-.61,1-.95,1.53a2.34,2.34,0,0,1-.24.31l0,.07Z" style="fill:#263238"></path><path d="M233.08,341.13l.06-19.28-.3.31c.88-1,1.69-1.81,2.57-2.67l.15-.14.26-.25L236,319a29.78,29.78,0,0,1,5.56-4.22h0l.22-.11.05,0,.15-.09h0c.48-.27,1-.51,1.43-.74.13-.07.27-.12.4-.18l.14-.07c.32-.12.66-.27,1-.38.18-.08.35-.12.51-.18l.08,0c.29-.07.57-.15.83-.2s.4-.08.59-.1a4.72,4.72,0,0,1,.74,0,5.23,5.23,0,0,1,.56,0,4,4,0,0,1,.65.11H249l.41.1a3.36,3.36,0,0,1,.6.28,3.89,3.89,0,0,1,.61.37,5.14,5.14,0,0,1,.65.55,4.26,4.26,0,0,1,.32.38l.07.1.06.07a4.85,4.85,0,0,1,.29.41,4.93,4.93,0,0,1,.34.6c.1.19.19.36.27.55s.2.48.3.74.13.38.19.58.17.56.25.86l.12.5,0,.08c.07.33.15.67.21,1,0,.09,0,.19,0,.29l0,.12c.22,1.41.38,3,.49,4.87v.08l.11,4.46v23.68Z" style="fill:#263238"></path><path d="M221.82,328.12,200.89,316c-1.39-.74-2.2-2.68-2.2-5.25a16,16,0,0,1,2.76-8.53l.4-.56c-.1.16-.22.32-.32.47l21.28,12.29a1.7,1.7,0,0,0-.15.22,15.85,15.85,0,0,0-2.76,8.52C219.9,325.57,220.64,327.29,221.82,328.12Z" style="fill:#263238"></path><path d="M222,328.19h0l-.14-.08c-1.18-.83-1.92-2.55-1.92-4.92a15.85,15.85,0,0,1,2.76-8.52,1.7,1.7,0,0,1,.15-.22l-21.28-12.29c.1-.15.22-.31.32-.47.27-.35.55-.68.84-1a6.14,6.14,0,0,1,.43-.45,4,4,0,0,1,.48-.45,7.57,7.57,0,0,1,1.35-1h0a5.59,5.59,0,0,1,.55-.28l.24-.1,0,0,.06,0a12.79,12.79,0,0,1,2.79-1.09l.34-.08a19.22,19.22,0,0,1,2.66-.35,18,18,0,0,0,8.89-2.71l.7-.43c.21-.12.4-.25.6-.39s.31-.19.46-.29l0,0,.06,0,.74-.54.7-.55.13-.1.11-.1.08-.07.3-.26c.09-.08.2-.16.29-.25s.36-.32.54-.5l.25-.25.11-.12.44-.46c.18-.19.36-.39.53-.59l.07-.08.29-.34c.13-.18.29-.36.42-.55l21.3,12.3.38-.52,0-.07a2.34,2.34,0,0,0,.24-.31c.34-.52.66-1,.95-1.53l.09-.16c.31-.57.61-1.17.9-1.79l.18-.46.05-.09c.15-.37.34-.81.5-1.27.08-.21.16-.44.23-.65l0-.15c.13-.35.24-.71.35-1.08s.16-.59.25-.9.16-.67.23-1,.15-.65.22-1,.12-.62.17-.95l0-.14c.06-.3.1-.61.15-.93s.05-.37.08-.56l0-.21c.21-1.59.35-3.27.44-5.09v-.19l.11-4.92V253.21h0l-21.21-12.42,8.7-5,4.49-2.59,4-2.32,1.56-.88c.41-.2.78-.42,1.16-.6a21.2,21.2,0,0,1,4.18-1.74l.44-.11a4.29,4.29,0,0,1,1.38-.1c.26,0,.4.23.6.35L280.92,240a1.84,1.84,0,0,1,.8,1.19c0,.17.09.37.13.58s.06.45.09.71l0,.4c0,.28,0,.58,0,.91s0,.68,0,1.06c0,.95,0,1.81-.12,2.63,0,.21,0,.41,0,.61s0,.39-.07.59,0,.38-.09.58-.05.38-.08.57c-.07.37-.13.73-.2,1.11s-.16.73-.23,1.09a.11.11,0,0,0,0,.08,31.42,31.42,0,0,0,2.73-12.22c0-.59,0-1.18-.06-1.68a30,30,0,0,0-1.82-9.39,21,21,0,0,1-1.37-7.82c0-4.94,0-7.66,10.48-13.69l17.11-9.8,21.28,12.29v87.06c0,7.25-4.42,15.7-9.85,18.84l-65.3,37.7V329.74l-.11-4.46v-.08c-.11-1.85-.27-3.46-.49-4.87l0-.12c0-.1,0-.2,0-.29-.06-.36-.14-.7-.21-1l0-.08-.12-.5c-.08-.3-.15-.58-.25-.86s-.12-.39-.19-.58-.19-.51-.3-.74-.17-.36-.27-.55a4.93,4.93,0,0,0-.34-.6,4.85,4.85,0,0,0-.29-.41l-.06-.07-.07-.1a4.26,4.26,0,0,0-.32-.38,5.14,5.14,0,0,0-.65-.55,3.89,3.89,0,0,0-.61-.37,3.36,3.36,0,0,0-.6-.28l-.41-.1h-.09a4,4,0,0,0-.65-.11,5.23,5.23,0,0,0-.56,0,4.72,4.72,0,0,0-.74,0c-.19,0-.38.06-.59.1s-.54.13-.83.2l-.08,0c-.16.06-.33.1-.51.18-.34.11-.68.26-1,.38l-.14.07c-.13.06-.27.11-.4.18-.48.23-.95.47-1.43.74h0l-.15.09-.05,0-.22.11h0A29.78,29.78,0,0,0,236,319l-.13.12-.26.25-.15.14c-.88.86-1.69,1.72-2.57,2.67a29.25,29.25,0,0,1-5.88,5.25l0,0,0,0c-.26.18-.49.35-.71.47a4.92,4.92,0,0,1-1.92.69,3.37,3.37,0,0,1-1.27,0A3.31,3.31,0,0,1,222,328.19Z" style="fill:#37474f"></path><path d="M254.36,253.2l-21.21-12.42,8.7-5,4.49-2.59,4-2.32,1.56-.88c.41-.2.78-.42,1.16-.6a21.2,21.2,0,0,1,4.18-1.74l.44-.11a4.29,4.29,0,0,1,1.38-.1c.26,0,.4.23.6.35L280.86,240a.85.85,0,0,0-.24-.09.67.67,0,0,0-.33-.07h0a3.37,3.37,0,0,0-1,0,4.6,4.6,0,0,0-.83.18,31.12,31.12,0,0,0-6.9,3.23l-4,2.32-4.5,2.6Z"></path><path d="M281.8,276.93c-2-2-3-5.37-3-9.44a15.31,15.31,0,0,1,.07-1.75s0,0,0-.07c0-1,.1-1.93.21-3,0-.3.07-.59.11-.89.07-.62.16-1.23.26-1.8s.18-1.06.28-1.57c.06-.27.11-.53.16-.78.24-1.11.49-2.22.78-3.41.19-.75.36-1.47.52-2.19h0a31.18,31.18,0,0,0,2.71-12.14c0-.59,0-1.17-.07-1.67a30,30,0,0,0-1.81-9.41,21.1,21.1,0,0,1-1.37-7.81c0-4.93,0-7.65,10.48-13.7l17.11-9.79,21.28,12.29-17.18,9.92c-10.48,6-10.48,8.77-10.48,13.7a20.67,20.67,0,0,0,1.37,7.82,30.46,30.46,0,0,1,1.81,9.4c0,.5.07,1.08.06,1.66,0,9.67-5.89,20.95-13.16,25.13C288,279.72,284.31,279.53,281.8,276.93Z"></path><path d="M222.81,314.46l-21.28-12.29c.1-.15.22-.31.32-.47.27-.35.55-.68.84-1a6.14,6.14,0,0,1,.43-.45,4,4,0,0,1,.48-.45,7.57,7.57,0,0,1,1.35-1h0a5.59,5.59,0,0,1,.55-.28l.24-.09,0,0,.06,0a12.79,12.79,0,0,1,2.79-1.09l.34-.08a19.22,19.22,0,0,1,2.66-.35,18,18,0,0,0,8.89-2.71l.7-.43c.21-.12.4-.25.6-.39a4.4,4.4,0,0,0,.45-.3l0,0,.06,0,.74-.54.71-.55.12-.1.11-.1.09-.07.29-.26c.09-.08.2-.16.29-.25s.36-.32.54-.5l.25-.25a.6.6,0,0,1,.12-.11l.43-.47c.18-.19.36-.39.53-.59l.07-.08.29-.34c.13-.18.29-.36.42-.55l21.31,12.3-.09.1c-.14.2-.29.39-.44.59s-.19.21-.28.32l-.08.08c-.32.37-.64.72-1,1.05l-.2.2c-.05.06-.11.11-.15.17l-.55.5-.58.5-.08.08-.25.19c-.46.39-.94.75-1.43,1.1,0,0-.06,0-.11.07a19.93,19.93,0,0,1-1.74,1.11L241,307l-.73.37a17,17,0,0,1-5.19,1.71l-.92.12-.46,0-.85.08h0a14.11,14.11,0,0,0-3.73.64c-.37.12-.76.27-1.19.45h0c-.27.12-.57.26-.87.42h0l0,0-.25.1a4.69,4.69,0,0,0-.55.28,9.71,9.71,0,0,0-1.38,1,5.62,5.62,0,0,0-.44.41c-.15.14-.3.3-.44.46a5.22,5.22,0,0,0-.52.6,4.24,4.24,0,0,0-.31.4C223,314.23,222.89,314.34,222.81,314.46Z"></path></g><g style="clip-path:url(#freepik--clip-path-2--inject-32)"><path d="M287.84,268.59l-21.33-12.32a2.75,2.75,0,0,1-.29-.17c-1.19-.9-1.74-2.77-1.74-5a8.68,8.68,0,0,1,0-1.08v-.13a39.7,39.7,0,0,1,1.39-8.53c.34-1.43.7-3,1-4.61l4.62-2.67.18-.1.11-.06,0,0,3.64-1.95,0,0h0l.1-.05a27,27,0,0,1,3.54-1.46l.14,0,.47-.15a4,4,0,0,1,.57-.14l.11,0c.22-.06.45-.12.68-.16l.6-.08c.23,0,.47,0,.7,0s.36,0,.53,0a3.76,3.76,0,0,1,.71.08h.09l.34.06a6.05,6.05,0,0,1,.81.28l.24.1a5.09,5.09,0,0,1,1.79,1.59,1.42,1.42,0,0,1,.11.18,5.93,5.93,0,0,1,.56,1c0,.07.07.15.1.21l0,.07c.15.37.28.77.41,1.19l.08.32a11.53,11.53,0,0,1,.3,1.49l.05.23a29.51,29.51,0,0,1,.27,4.29,50.37,50.37,0,0,1-1.8,12.88,40.45,40.45,0,0,0-1.38,8.54v.12c0,.46-.05.79-.05,1.09,0,2.23.65,3.94,1.83,4.84Z" style="fill:#FFD700"></path><path d="M254.35,244l-21.2-12.41V208.65a59.61,59.61,0,0,1,.64-10.06c.74-4.09,1.86-5.33,5.08-7.19a12.9,12.9,0,0,1,6.46-1.91c.75-.06,1.46-.13,2.18-.24l.57-.1,1-.21c.41-.12.85-.24,1.31-.4a4.74,4.74,0,0,0,.56-.2,18.3,18.3,0,0,0,2.14-.94l.09-.05a9.1,9.1,0,0,0,1.25-.62c3.94-2.27,7.64-6.74,10.14-12.24.17-.36.31-.72.46-1.07l-.53.53c.68-.67,1.34-1.39,2-2.13a39.88,39.88,0,0,1,7.82-6.92,10.54,10.54,0,0,1,1.29-.83c7.25-4.2,13.16.27,13.16,9.93a31.85,31.85,0,0,1-3,12.91c-2.51,5.51-6.21,10-10.15,12.25a10.39,10.39,0,0,1-1.25.61.15.15,0,0,1-.09,0,20.11,20.11,0,0,1-2.14,1l-.56.2a13.34,13.34,0,0,1-1.31.38c-.35.09-.67.16-1,.22l-.58.1c-.71.1-1.43.19-2.18.24a12.74,12.74,0,0,0-6.45,1.91c-3.22,1.85-4.35,3.09-5.08,7.18a59.51,59.51,0,0,0-.66,10.08v15.1h0Z" style="fill:#FFD700"></path><path d="M256.3,178.49,235,166.17c-1.25-.76-1.82-3.92-1.82-11.86l-.09-22.8,21.28,12.29v22.92c0,8,.67,11.05,1.94,11.76Z" style="fill:#FFD700"></path><path d="M287.84,268.59l-21.33-12.32a2.75,2.75,0,0,1-.29-.17c-1.19-.9-1.74-2.77-1.74-5a8.68,8.68,0,0,1,0-1.08v-.13a39.7,39.7,0,0,1,1.39-8.53c.34-1.43.7-3,1-4.61l4.62-2.67.18-.1.11-.06,0,0,3.64-1.95,0,0h0l.1-.05a27,27,0,0,1,3.54-1.46l.14,0,.47-.15a4,4,0,0,1,.57-.14l.11,0c.22-.06.45-.12.68-.16l.6-.08c.23,0,.47,0,.7,0s.36,0,.53,0a3.76,3.76,0,0,1,.71.08h.09l.34.06a6.05,6.05,0,0,1,.81.28l.24.1a5.09,5.09,0,0,1,1.79,1.59,1.42,1.42,0,0,1,.11.18,5.93,5.93,0,0,1,.56,1c0,.07.07.15.1.21l0,.07c.15.37.28.77.41,1.19l.08.32a11.53,11.53,0,0,1,.3,1.49l.05.23a29.51,29.51,0,0,1,.27,4.29,50.37,50.37,0,0,1-1.8,12.88,40.45,40.45,0,0,0-1.38,8.54v.12c0,.46-.05.79-.05,1.09,0,2.23.65,3.94,1.83,4.84Z" style="opacity:0.2"></path><path d="M254.35,244l-21.2-12.41V208.65a59.61,59.61,0,0,1,.64-10.06c.74-4.09,1.86-5.33,5.08-7.19a12.9,12.9,0,0,1,6.46-1.91c.75-.06,1.46-.13,2.18-.24l.57-.1,1-.21c.41-.12.85-.24,1.31-.4a4.74,4.74,0,0,0,.56-.2,18.3,18.3,0,0,0,2.14-.94l.09-.05a9.1,9.1,0,0,0,1.25-.62c3.94-2.27,7.64-6.74,10.14-12.24.17-.36.31-.72.46-1.07l-.53.53c.68-.67,1.34-1.39,2-2.13a39.88,39.88,0,0,1,7.82-6.92,10.54,10.54,0,0,1,1.29-.83c7.25-4.2,13.16.27,13.16,9.93a31.85,31.85,0,0,1-3,12.91c-2.51,5.51-6.21,10-10.15,12.25a10.39,10.39,0,0,1-1.25.61.15.15,0,0,1-.09,0,20.11,20.11,0,0,1-2.14,1l-.56.2a13.34,13.34,0,0,1-1.31.38c-.35.09-.67.16-1,.22l-.58.1c-.71.1-1.43.19-2.18.24a12.74,12.74,0,0,0-6.45,1.91c-3.22,1.85-4.35,3.09-5.08,7.18a59.51,59.51,0,0,0-.66,10.08v15.1h0Z" style="opacity:0.2"></path><path d="M256.3,178.49,235,166.17c-1.25-.76-1.82-3.92-1.82-11.86l-.09-22.8,21.28,12.29v22.92c0,8,.67,11.05,1.94,11.76Z" style="opacity:0.2"></path><path d="M288,268.69l-.16-.09h0l-.34-.22c-1.18-.9-1.83-2.61-1.83-4.84,0-.3,0-.63.05-1.09v-.12a40.45,40.45,0,0,1,1.38-8.54,50.37,50.37,0,0,0,1.8-12.88,29.51,29.51,0,0,0-.27-4.29l-.05-.23a11.53,11.53,0,0,0-.3-1.49l-.08-.32c-.13-.42-.26-.82-.41-1.19l0-.07c0-.06-.06-.14-.1-.21a5.93,5.93,0,0,0-.56-1,1.42,1.42,0,0,0-.11-.18,5.09,5.09,0,0,0-1.79-1.59l-.24-.1a6.05,6.05,0,0,0-.81-.28l-.34-.06h-.09a3.76,3.76,0,0,0-.71-.08c-.17,0-.35,0-.53,0s-.47,0-.7,0l-.6.08c-.23,0-.46.1-.68.16l-.11,0a4,4,0,0,0-.57.14l-.47.15-.14,0a27,27,0,0,0-3.54,1.46l-.1.05h0l0,0-3.64,1.95,0,0-.11.06-.18.1-4.62,2.67L254.35,244v-7.83h0v-15.1A59.51,59.51,0,0,1,255,211c.73-4.09,1.86-5.33,5.08-7.18a12.74,12.74,0,0,1,6.45-1.91c.75,0,1.47-.14,2.18-.24l.58-.1c.33-.06.65-.13,1-.22a13.34,13.34,0,0,0,1.31-.38l.56-.2a20.11,20.11,0,0,0,2.14-1,.15.15,0,0,0,.09,0,10.39,10.39,0,0,0,1.25-.61c3.94-2.29,7.64-6.74,10.15-12.25a31.85,31.85,0,0,0,3-12.91c0-9.66-5.91-14.13-13.16-9.93a10.54,10.54,0,0,0-1.29.83,39.88,39.88,0,0,0-7.82,6.92c-.69.74-1.35,1.46-2,2.13a22.62,22.62,0,0,1-3.46,2.84l-.45.28-.52.31c-.6.34-1.14.66-1.65.89l-.49.2a1.79,1.79,0,0,1-.46.13,1.33,1.33,0,0,1-.43.07,1.43,1.43,0,0,1-.76-.19c-1.27-.71-1.94-3.74-1.94-11.76V143.8l-21.28-12.29,65.38-37.82c.24-.13.46-.26.7-.37a4.66,4.66,0,0,1,.66-.28h0l.66-.21a3.6,3.6,0,0,1,.63-.15,5.73,5.73,0,0,1,.81-.09,5.35,5.35,0,0,1,3.11.83l21,12.11v0a5.38,5.38,0,0,1,1.67,1.43,6.38,6.38,0,0,1,.43.63,4.83,4.83,0,0,1,.26.45c.16.32.31.65.45,1,.05.18.12.36.17.55a13.49,13.49,0,0,1,.53,4v87.06l-17.19,9.92-.31.2-.21.12h-.05L308.37,213l0,0,0,0a41.4,41.4,0,0,0-3.91,2.91l-.09.07-.2.17-.89.8-.07.08c-.13.11-.26.24-.38.36s-.53.52-.78.79-.34.35-.49.53-.49.54-.72.82l-.47.59-.66.88-.36.53-.08.14-.09.14c-.17.25-.35.51-.51.78s-.22.39-.32.59l-.08.16c-.31.56-.61,1.15-.88,1.75l-.06.15c-.12.25-.23.51-.33.76h0c-.09.26-.19.52-.28.79l-.08.2-.3.92c-.1.33-.19.66-.28,1s-.17.68-.25,1-.14.67-.2,1-.13.73-.18,1.1v.06c0,.31-.1.62-.13.93s-.08.78-.12,1.22l0,.24c0,.23,0,.46-.05.69,0,.49,0,1,0,1.72V237c0,.12,0,.25,0,.37a29.79,29.79,0,0,0,1.8,10.81,22,22,0,0,1,1.38,7v.11c0,.32.05.65.06.92,0,4.61-2.82,10-6.28,12a5.27,5.27,0,0,1-2.07.73,2.3,2.3,0,0,1-.45,0h-.07a.86.86,0,0,1-.28,0,.69.69,0,0,1-.25,0l-.2-.05-.24-.07a.51.51,0,0,1-.18-.07A.61.61,0,0,1,288,268.69Z" style="fill:#FFD700"></path><path d="M254.35,143.8l-21.28-12.29,65.38-37.82c.24-.13.46-.26.7-.37a4.66,4.66,0,0,1,.66-.28h0l.66-.21a3.6,3.6,0,0,1,.63-.15,5.73,5.73,0,0,1,.81-.09,5.35,5.35,0,0,1,3.11.83l20.76,12a2.68,2.68,0,0,0-.57-.22.69.69,0,0,1-.13-.05,2.83,2.83,0,0,0-.56-.13l-.19,0a1.45,1.45,0,0,0-.37,0h0l-.36,0a.27.27,0,0,0-.09,0,3,3,0,0,0-.52,0l-.4.06a4.15,4.15,0,0,0-.8.18l-.4.12-.78.31c-.3.14-.6.3-.92.48Z" style="fill:#fff;opacity:0.30000000000000004"></path></g><g style="clip-path:url(#freepik--clip-path-3--inject-32)"><path d="M220.89,261.17l-21.21-12.44h0c-.83-.49-1.09-1.86-1.09-4.82a30.94,30.94,0,0,1,.87-7.24,36.45,36.45,0,0,0-1.62,4.53c2-7.35,6.67-14.34,12-17.44,3.51-2,6.81-2.11,9.3-.23S223,229,223,233.7c0,.45,0,.89-.05,1.29v.22c0,.11,0,.22,0,.33,0,1-.12,2-.23,3.05a4.26,4.26,0,0,1-.06.5l0,.15c-.09.71-.18,1.4-.29,2.09-.08.41-.16.82-.23,1.22s-.16.81-.24,1.21c-.22,1-.47,2.09-.73,3.18a36.14,36.14,0,0,0-1.37,9.39C219.79,259.31,220,260.68,220.89,261.17Z" style="fill:#FFD700"></path><path d="M172.3,291.39,151,279.11l.08-87.21a23.77,23.77,0,0,1,2.43-10l21.26,12.27a24.05,24.05,0,0,0-2.49,10.15Z" style="fill:#FFD700"></path><path d="M220.89,261.17l-21.21-12.44h0c-.83-.49-1.09-1.86-1.09-4.82a30.94,30.94,0,0,1,.87-7.24h0c2.4-5.57,6.17-10.46,10.42-12.91,3.51-2,6.81-2.11,9.3-.23S223,229,223,233.7c0,.45,0,.89-.05,1.29v.22c0,.11,0,.22,0,.33,0,1-.12,2-.23,3.05a4.26,4.26,0,0,1-.06.5l0,.15c-.09.71-.18,1.4-.29,2.09-.08.41-.16.82-.23,1.22s-.16.81-.24,1.21c-.22,1-.47,2.09-.73,3.18a36.14,36.14,0,0,0-1.37,9.39C219.79,259.31,220,260.68,220.89,261.17Z" style="fill:#263238"></path><path d="M172.3,291.39,151,279.11l.08-87.21a23.77,23.77,0,0,1,2.43-10l21.26,12.27a24.05,24.05,0,0,0-2.49,10.15Z" style="fill:#263238"></path><path d="M172.3,291.39V204.31a24.05,24.05,0,0,1,2.49-10.15l-21.26-12.27c.06-.13.11-.25.17-.37a5.28,5.28,0,0,1,.3-.58c.14-.27.28-.53.43-.79s.36-.63.56-.92l.11-.21a.94.94,0,0,1,.09-.12c.17-.28.37-.57.57-.85l0,0,.18-.25a3.79,3.79,0,0,1,.34-.45,4.82,4.82,0,0,1,.35-.44l.1-.13c.18-.23.37-.46.57-.67l.24-.25a1.45,1.45,0,0,1,.17-.18l.11-.13.21-.19s0,0,0,0l.37-.36a.48.48,0,0,1,.11-.09c.11-.1.21-.21.31-.29l.11-.09.05,0,.27-.2c.1-.09.21-.16.31-.24s.2-.16.3-.24a4,4,0,0,1,.37-.25,5.1,5.1,0,0,1,.69-.45l65.23-37.56,21.28,12.29v19.16l.31-.32a29,29,0,0,1,5.89-5.25l0,0,0,0,.08,0a7.18,7.18,0,0,1,.64-.43,3.8,3.8,0,0,1,4.09-.15l21.21,12.25a1.6,1.6,0,0,1,.32.21l.18.14a4.83,4.83,0,0,1,1.44,2.58c.06.25.11.52.15.79a9.47,9.47,0,0,1,.08,1.34,15.42,15.42,0,0,1-1.83,6.95,12.34,12.34,0,0,1-4.43,5,8.09,8.09,0,0,1-.79.4h-.05l0,0a13.16,13.16,0,0,1-5.8,1.51,18,18,0,0,0-8.89,2.73,24,24,0,0,0-3.35,2.31l-.12.09c-.49.41-1,.83-1.38,1.25l-.06.07,0,0a21.21,21.21,0,0,0-2.63,3.16l0,0c-.33.49-.65,1-1,1.57l-.15.27,0,.08c-.26.46-.5,1-.73,1.44l0,.07a2.67,2.67,0,0,0-.14.34c-.23.51-.44,1-.64,1.59l-.1.26c-.23.64-.44,1.3-.61,1.92l-.05.21c-.15.55-.29,1.12-.41,1.7,0,.16-.08.34-.11.51l0,.14c-.08.43-.15.85-.23,1.29,0,.25-.09.52-.12.78s-.12.81-.17,1.23l0,.2c0,.2-.05.41-.06.63,0,.42-.09.86-.12,1.29l0,.23c0,.16,0,.32-.05.48v.15l-.23,7v23l-6,3.49-5.67,3.27-5.49,3.17c-3.81,2.21-6.47,3.33-8.09,3.45a2.47,2.47,0,0,1-.38,0,2,2,0,0,1-.89-.22v0h0c-.85-.49-1.1-1.86-1.1-4.84a36.14,36.14,0,0,1,1.37-9.39c.26-1.09.51-2.15.73-3.18.08-.4.17-.8.24-1.21s.15-.81.23-1.22c.11-.69.2-1.38.29-2.09l0-.15a4.26,4.26,0,0,0,.06-.5c.11-1.05.19-2,.23-3.05,0-.11,0-.22,0-.33V235c0-.4.06-.84.05-1.29,0-4.69-1.36-8.3-3.85-10.18s-5.79-1.81-9.3.23c-4.25,2.45-8,7.34-10.42,12.91a30,30,0,0,0-1.28,3.38c-.12.38-.24.77-.34,1.15s-.24.91-.35,1.37a.84.84,0,0,0-.06.24c-.1.44-.19.89-.26,1.33a28.53,28.53,0,0,0-.37,2.87,6.12,6.12,0,0,0,0,.86c0,.34,0,.68,0,1,0,.59,0,1.21.07,1.69a29.92,29.92,0,0,0,1.81,9.38,21.87,21.87,0,0,1,1.23,5v.2l0,.06v.08a1.48,1.48,0,0,0,0,.21c.05.74.09,1.47.09,2.23,0,4.93,0,7.65-10.47,13.7Z" style="fill:#37474f"></path><path d="M258.55,160.68l21.21,12.25a4,4,0,0,0-4.11.33c-.18.1-.41.26-.64.42l-.07.07-.05,0,0,0a28.75,28.75,0,0,0-5.89,5.25,37,37,0,0,1-8.89,7.52l-.42.23-.16.08-.12.06c-.32.17-.63.35-.92.49l-.56.24-.19.07-.11.06-.7.26a4.75,4.75,0,0,1-.64.2l-.08,0-.71.17c-.24.06-.46.07-.69.11l-.66,0c-.21,0-.42,0-.62,0s-.39-.07-.58-.1a3.3,3.3,0,0,1-.56-.16,2.94,2.94,0,0,1-.51-.23l-.09,0a4.38,4.38,0,0,1-.43-.24,3.05,3.05,0,0,1-.38-.32l-.08-.06-.08-.08c-.11-.09-.23-.2-.34-.31a5.82,5.82,0,0,1-.36-.47l-.06-.09a8.82,8.82,0,0,1-.6-1l-.06-.13a4.12,4.12,0,0,1-.23-.47c-.07-.17-.15-.38-.22-.58l0-.14,0-.12c-.06-.18-.13-.34-.19-.54s-.14-.54-.21-.82-.13-.48-.17-.73-.12-.6-.17-.92-.09-.52-.13-.78-.08-.67-.12-1-.06-.55-.09-.83-.07-.73-.09-1.12c0-.2,0-.44,0-.67v-.3c0-.35,0-.72-.06-1.1v-.15l-.07-4v-4.14c.09-.11.2-.21.29-.31a29,29,0,0,1,5.89-5.25l0,0,.05,0,.08-.06a5.73,5.73,0,0,1,.63-.42A3.84,3.84,0,0,1,258.55,160.68Z"></path><path d="M174.8,194.17l-21.28-12.29c.06-.13.11-.24.18-.36a5.28,5.28,0,0,1,.3-.58c.14-.27.28-.53.43-.79s.36-.63.56-.92a2.23,2.23,0,0,1,.2-.33c.17-.28.37-.57.57-.85l0,0,.18-.25a3.79,3.79,0,0,1,.34-.45,6.26,6.26,0,0,1,.45-.57c.18-.23.37-.46.57-.67l.24-.25a1.45,1.45,0,0,1,.17-.18l.32-.32s0,0,0,0l.37-.36a.48.48,0,0,1,.11-.09,3.79,3.79,0,0,1,.42-.38l.05,0,.27-.2a7.16,7.16,0,0,1,.61-.48,4,4,0,0,1,.37-.25,5.1,5.1,0,0,1,.69-.45l65.22-37.57,21.28,12.29-28.67,16.55-36.64,21.17c-.28.16-.55.33-.82.51s-.5.36-.73.56a2.79,2.79,0,0,0-.38.3c-.24.19-.48.42-.71.64s-.56.55-.83.83a20.53,20.53,0,0,0-1.67,2.08c-.2.28-.4.56-.59.86A25.43,25.43,0,0,0,174.8,194.17Z" style="fill:#455a64"></path></g><path d="M143.45,215.72a4.27,4.27,0,0,0,2.89-.91c2.21-1.71,3.86-1.57,6.23-2.59,1.86-.81,2.61-1.8,3-1.46a2.29,2.29,0,0,1-.05,3.12,11.69,11.69,0,0,1-2.46,2.16,23.52,23.52,0,0,0,6.44-1.32c5-1.7,7.37-1,5.1,5.35-1.42,4-5,6.2-14.81,6A81,81,0,0,1,139,224.61c-9.71-1.91-29.26-4.84-32.67-9.43-9.65-13-18.5-23.72-19.72-33.42-1-8.14,4-12.69,8.63-12.69,2.63,2.77,4.23,6.07,6.65,13.84,0,0,12.56,22.49,13.83,24.13C118.88,208.77,141.39,215.39,143.45,215.72Z" style="fill:#ffa8a7"></path><path d="M324.82,132.4c1.69,1,3.5,1.43,5.75,3.07a11.79,11.79,0,0,0,5.06,2.55c2.41.59,21.38-5.82,24.89-8.53,7.15-5.51,13.32-15.88,16.76-19.81,2.83-3.24,6-8.12,9.53-8.14,5.77,1.74,4.47,10.32-.36,18-4,6.39-11.58,14.46-20.16,20.09-4.16,2.73-23.33,7.68-29.7,8.1-1.93.12-3.36.56-7,1.08a15.85,15.85,0,0,1-4.6.25,20,20,0,0,1-5.45-1.67,13.53,13.53,0,0,1-5.44-4.61,8.5,8.5,0,0,1-1.4-3.67,5.6,5.6,0,0,1,.86-3.79,1.53,1.53,0,0,1,.57-.56,1.88,1.88,0,0,1,1.41.1c2.56.89,5.18,2.23,7.81,2.84,2.22.51,3.86.57,3.64.17s-1.54-.62-3.05-1.9-2.13-3.3-1.38-4.06S323.14,131.36,324.82,132.4Z" style="fill:#ffa8a7"></path><path d="M387.18,99.51c4.26,2.09,6,5.27,4.1,12.35-1.7,6.36-8.22,17.21-13.35,22.52,0,0-8.78-4.16-13.45-9.57,4.62-7.07,6.85-11.23,11.19-17.22S384.58,98.8,387.18,99.51Z" style="fill:#e0e0e0"></path></g></svg>